<?xml version="1.0" encoding="UTF-8" standalone="no"?><!DOCTYPE svg PUBLIC "-//W3C//DTD SVG 1.1//EN" "http://www.w3.org/Graphics/SVG/1.1/DTD/svg11.dtd"><svg width="100%" height="100%" viewBox="0 0 512 512" version="1.1" xmlns="http://www.w3.org/2000/svg" xmlns:xlink="http://www.w3.org/1999/xlink" xml:space="preserve" xmlns:serif="http://www.serif.com/" style="fill-rule:evenodd;clip-rule:evenodd;stroke-linecap:round;stroke-linejoin:round;stroke-miterlimit:1.5;"><rect id="quaffel" x="0" y="0" width="512" height="512" style="fill:none;"/><circle cx="256" cy="256" r="256" style="fill:#2e241c;"/><path d="M256.828,0.001l0.827,0.004l0.826,0.007l0.826,0.009l0.825,0.012l0.824,0.014l0.824,0.017l0.823,0.02l0.823,0.022l0.822,0.025l0.821,0.027l0.821,0.03l0.819,0.032l0.82,0.035l0.818,0.038l0.818,0.04l0.818,0.043l0.816,0.046l0.816,0.047l0.816,0.051l0.814,0.053l0.814,0.055l0.813,0.058l0.813,0.061l0.811,0.063l0.812,0.066l0.81,0.068l0.81,0.071l0.808,0.073l0.809,0.076l0.807,0.078l0.807,0.081l0.806,0.083l0.805,0.086l0.805,0.088l0.804,0.091l0.803,0.093l0.802,0.096l0.801,0.098l0.801,0.1l0.8,0.103l0.799,0.106l0.799,0.108l0.798,0.111l0.796,0.112l0.797,0.116l0.795,0.118l0.794,0.12l0.794,0.123l0.793,0.125l0.792,0.127l0.792,0.13l0.79,0.133l0.79,0.135l0.789,0.137l0.788,0.139l0.787,0.143l0.786,0.144l0.786,0.147l0.784,0.149l0.784,0.152l0.783,0.154l0.782,0.156l0.782,0.159l0.78,0.161l0.78,0.164l0.778,0.165l0.778,0.169l0.777,0.17l0.776,0.173l0.776,0.176l0.774,0.177l0.773,0.18l0.773,0.183l0.771,0.184l0.771,0.187l0.77,0.19l0.769,0.191l0.768,0.194l0.767,0.196l0.766,0.199l0.765,0.201l0.764,0.203l0.764,0.206l0.762,0.207l0.762,0.21l0.76,0.213l0.76,0.214l0.758,0.217l0.758,0.22l0.757,0.221l0.755,0.224l0.755,0.226l0.754,0.228l0.753,0.231l0.751,0.232l0.751,0.235l0.75,0.238l0.749,0.239l0.748,0.242l0.747,0.244l0.745,0.246l0.745,0.248l0.744,0.251l0.743,0.253l0.742,0.255l0.74,0.257l0.74,0.26l0.739,0.261l0.737,0.264l0.737,0.266l0.735,0.269l0.735,0.27l0.733,0.273l0.733,0.274l0.731,0.277l0.73,0.28l0.73,0.281l0.728,0.283l0.727,0.286l0.726,0.288l0.725,0.29l0.723,0.292l0.723,0.294l0.722,0.296l0.72,0.299l0.72,0.3l0.718,0.303l0.717,0.305l0.716,0.307l0.715,0.309l0.714,0.311l0.712,0.313l0.712,0.316l0.71,0.317l0.71,0.32l0.708,0.322l0.707,0.323l0.706,0.326l0.704,0.328l0.704,0.33l0.702,0.332l0.701,0.334l0.7,0.337l0.699,0.338l0.698,0.34l0.696,0.342l0.696,0.345l0.694,0.346l0.693,0.349l0.691,0.35l0.691,0.353l0.689,0.354l0.688,0.357l0.687,0.359l0.686,0.36l0.684,0.363l0.683,0.365l0.682,0.366l0.681,0.369l0.679,0.371l0.679,0.372l0.677,0.375l0.675,0.376l0.675,0.379l0.673,0.381l0.672,0.382l0.671,0.385l0.669,0.386l0.668,0.388l0.667,0.391l0.666,0.392l0.664,0.395l0.663,0.396l0.662,0.398l0.66,0.4l0.659,0.402l0.658,0.404l0.657,0.406l0.655,0.408l0.654,0.409l0.652,0.412l0.652,0.414l0.65,0.415l0.648,0.417l0.647,0.42l0.646,0.421l0.645,0.423l0.643,0.425l0.642,0.427l0.64,0.428l0.639,0.431l0.638,0.432l0.637,0.434l0.635,0.437l0.633,0.438l0.633,0.439l0.63,0.442l0.63,0.444l0.628,0.445l0.627,0.447l0.625,0.449l0.624,0.451l0.622,0.453l0.621,0.454l0.62,0.457l0.618,0.458l0.617,0.46l0.616,0.462l0.614,0.463l0.612,0.466l0.611,0.467l0.61,0.469l0.608,0.471l0.607,0.472l0.605,0.474l0.604,0.477l0.602,0.477l0.601,0.48l0.6,0.481l0.598,0.484l0.596,0.484l0.595,0.487l0.593,0.489l0.592,0.49l0.591,0.492l0.589,0.493l0.588,0.496l0.586,0.497l0.584,0.498l0.583,0.501l0.581,0.502l0.58,0.504l0.579,0.506l0.577,0.507l0.575,0.509l0.574,0.511l0.572,0.512l0.571,0.514l0.569,0.516l0.568,0.518l0.566,0.519l0.564,0.521l0.563,0.522l0.562,0.525l0.559,0.525l0.559,0.528l0.556,0.529l0.555,0.531l0.554,0.532l0.552,0.534l0.55,0.536l0.548,0.537l0.548,0.539l0.545,0.541l0.544,0.542l0.542,0.544l0.541,0.545l0.539,0.548l0.537,0.548l0.536,0.55l0.534,0.552l0.532,0.554l0.531,0.555l0.529,0.556l0.528,0.559l0.525,0.559l0.525,0.562l0.522,0.563l0.521,0.564l0.519,0.566l0.518,0.568l0.516,0.569l0.514,0.571l0.512,0.572l0.511,0.574l0.509,0.575l0.507,0.577l0.506,0.579l0.504,0.58l0.502,0.581l0.501,0.583l0.498,0.584l0.497,0.586l0.496,0.588l0.493,0.589l0.492,0.591l0.49,0.592l0.489,0.593l0.487,0.595l0.484,0.596l0.484,0.598l0.481,0.6l0.48,0.601l0.477,0.602l0.477,0.604l0.474,0.605l0.472,0.607l0.471,0.608l0.469,0.61l0.467,0.611l0.466,0.612l0.463,0.614l0.462,0.616l0.46,0.617l0.458,0.618l0.457,0.62l0.454,0.621l0.453,0.622l0.451,0.624l0.449,0.625l0.447,0.627l0.445,0.628l0.444,0.63l0.442,0.63l0.439,0.633l0.438,0.633l0.437,0.635l0.434,0.637l0.432,0.638l0.431,0.639l0.428,0.64l0.427,0.642l0.425,0.643l0.423,0.645l0.421,0.646l0.42,0.647l0.417,0.648l0.415,0.65l0.414,0.652l0.412,0.652l0.409,0.654l0.408,0.655l0.406,0.657l0.404,0.658l0.402,0.659l0.4,0.66l0.398,0.662l0.396,0.663l0.395,0.664l0.392,0.666l0.391,0.667l0.388,0.668l0.386,0.669l0.385,0.671l0.382,0.672l0.381,0.673l0.379,0.675l0.376,0.675l0.375,0.677l0.372,0.679l0.371,0.679l0.369,0.681l0.366,0.682l0.365,0.683l0.363,0.684l0.36,0.686l0.359,0.687l0.357,0.688l0.354,0.689l0.353,0.691l0.35,0.691l0.349,0.693l0.346,0.694l0.345,0.696l0.342,0.696l0.34,0.698l0.338,0.699l0.337,0.7l0.334,0.701l0.332,0.702l0.33,0.704l0.328,0.704l0.326,0.706l0.323,0.707l0.322,0.708l0.32,0.71l0.317,0.71l0.316,0.712l0.313,0.712l0.311,0.714l0.309,0.715l0.307,0.716l0.305,0.717l0.303,0.718l0.3,0.72l0.299,0.72l0.296,0.722l0.294,0.723l0.292,0.723l0.29,0.725l0.288,0.726l0.286,0.727l0.283,0.728l0.281,0.73l0.28,0.73l0.277,0.731l0.274,0.733l0.273,0.733l0.27,0.735l0.269,0.735l0.266,0.737l0.264,0.737l0.261,0.739l0.26,0.74l0.257,0.74l0.255,0.742l0.253,0.743l0.251,0.744l0.248,0.745l0.246,0.745l0.244,0.747l0.242,0.748l0.239,0.749l0.238,0.75l0.235,0.751l0.232,0.751l0.231,0.753l0.228,0.754l0.226,0.755l0.224,0.755l0.221,0.757l0.22,0.758l0.217,0.758l0.214,0.76l0.213,0.76l0.21,0.762l0.207,0.762l0.206,0.764l0.203,0.764l0.201,0.765l0.199,0.766l0.196,0.767l0.194,0.768l0.191,0.769l0.19,0.77l0.187,0.771l0.184,0.771l0.183,0.773l0.18,0.773l0.177,0.774l0.176,0.776l0.173,0.776l0.17,0.777l0.169,0.778l0.165,0.778l0.164,0.78l0.161,0.78l0.159,0.782l0.156,0.782l0.154,0.783l0.152,0.784l0.149,0.784l0.147,0.786l0.144,0.786l0.143,0.787l0.139,0.788l0.137,0.789l0.135,0.79l0.133,0.79l0.13,0.792l0.127,0.792l0.125,0.793l0.123,0.794l0.12,0.794l0.118,0.795l0.116,0.797l0.112,0.796l0.111,0.798l0.108,0.799l0.106,0.799l0.103,0.8l0.1,0.801l0.098,0.801l0.096,0.802l0.093,0.803l0.091,0.804l0.088,0.805l0.086,0.805l0.083,0.806l0.081,0.807l0.078,0.807l0.076,0.809l0.073,0.808l0.071,0.81l0.068,0.81l0.066,0.812l0.063,0.811l0.061,0.813l0.058,0.813l0.055,0.814l0.053,0.814l0.051,0.816l0.047,0.816l0.046,0.816l0.043,0.818l0.04,0.818l0.038,0.818l0.035,0.82l0.032,0.819l0.03,0.821l0.027,0.821l0.025,0.822l0.022,0.823l0.02,0.823l0.017,0.824l0.014,0.824l0.012,0.825l0.009,0.826l0.007,0.826l0.004,0.827l0.001,0.828l-0.001,0.828l-0.004,0.827l-0.007,0.826l-0.009,0.826l-0.012,0.825l-0.014,0.824l-0.017,0.824l-0.02,0.823l-0.022,0.823l-0.025,0.822l-0.027,0.821l-0.03,0.821l-0.032,0.819l-0.035,0.82l-0.038,0.818l-0.04,0.818l-0.043,0.818l-0.046,0.816l-0.047,0.816l-0.051,0.816l-0.053,0.814l-0.055,0.814l-0.058,0.813l-0.061,0.813l-0.063,0.811l-0.066,0.812l-0.068,0.81l-0.071,0.81l-0.073,0.808l-0.076,0.809l-0.078,0.807l-0.081,0.807l-0.083,0.806l-0.086,0.805l-0.088,0.805l-0.091,0.804l-0.093,0.803l-0.096,0.802l-0.098,0.801l-0.1,0.801l-0.103,0.8l-0.106,0.799l-0.108,0.799l-0.111,0.798l-0.112,0.796l-0.116,0.797l-0.118,0.795l-0.12,0.794l-0.123,0.794l-0.125,0.793l-0.127,0.792l-0.13,0.792l-0.133,0.79l-0.135,0.79l-0.137,0.789l-0.139,0.788l-0.143,0.787l-0.144,0.786l-0.147,0.786l-0.149,0.784l-0.152,0.784l-0.154,0.783l-0.156,0.782l-0.159,0.782l-0.161,0.78l-0.164,0.78l-0.165,0.778l-0.169,0.778l-0.17,0.777l-0.173,0.776l-0.176,0.776l-0.177,0.774l-0.18,0.773l-0.183,0.773l-0.184,0.771l-0.187,0.771l-0.19,0.77l-0.191,0.769l-0.194,0.768l-0.196,0.767l-0.199,0.766l-0.201,0.765l-0.203,0.764l-0.206,0.764l-0.207,0.762l-0.21,0.762l-0.213,0.76l-0.214,0.76l-0.217,0.758l-0.22,0.758l-0.221,0.757l-0.224,0.755l-0.226,0.755l-0.228,0.754l-0.231,0.753l-0.232,0.751l-0.235,0.751l-0.238,0.75l-0.239,0.749l-0.242,0.748l-0.244,0.747l-0.246,0.745l-0.248,0.745l-0.251,0.744l-0.253,0.743l-0.255,0.742l-0.257,0.74l-0.26,0.74l-0.261,0.739l-0.264,0.737l-0.266,0.737l-0.269,0.735l-0.27,0.735l-0.273,0.733l-0.274,0.733l-0.277,0.731l-0.28,0.73l-0.281,0.73l-0.283,0.728l-0.286,0.727l-0.288,0.726l-0.29,0.725l-0.292,0.723l-0.294,0.723l-0.296,0.722l-0.299,0.72l-0.3,0.72l-0.303,0.718l-0.305,0.717l-0.307,0.716l-0.309,0.715l-0.311,0.714l-0.313,0.712l-0.316,0.712l-0.317,0.71l-0.32,0.71l-0.322,0.708l-0.323,0.707l-0.326,0.706l-0.328,0.704l-0.33,0.704l-0.332,0.702l-0.334,0.701l-0.337,0.7l-0.338,0.699l-0.34,0.698l-0.342,0.696l-0.345,0.696l-0.346,0.694l-0.349,0.693l-0.35,0.691l-0.353,0.691l-0.354,0.689l-0.357,0.688l-0.359,0.687l-0.36,0.686l-0.363,0.684l-0.365,0.683l-0.366,0.682l-0.369,0.681l-0.371,0.679l-0.372,0.679l-0.375,0.677l-0.376,0.675l-0.379,0.675l-0.381,0.673l-0.382,0.672l-0.385,0.671l-0.386,0.669l-0.388,0.668l-0.391,0.667l-0.392,0.666l-0.395,0.664l-0.396,0.663l-0.398,0.662l-0.4,0.66l-0.402,0.659l-0.404,0.658l-0.406,0.657l-0.408,0.655l-0.409,0.654l-0.412,0.652l-0.414,0.652l-0.415,0.65l-0.417,0.648l-0.42,0.647l-0.421,0.646l-0.423,0.645l-0.425,0.643l-0.427,0.642l-0.428,0.64l-0.431,0.639l-0.432,0.638l-0.434,0.637l-0.437,0.635l-0.438,0.633l-0.439,0.633l-0.442,0.63l-0.444,0.63l-0.445,0.628l-0.447,0.627l-0.449,0.625l-0.451,0.624l-0.453,0.622l-0.454,0.621l-0.457,0.62l-0.458,0.618l-0.46,0.617l-0.462,0.616l-0.463,0.614l-0.466,0.612l-0.467,0.611l-0.469,0.61l-0.471,0.608l-0.472,0.607l-0.474,0.605l-0.477,0.604l-0.477,0.602l-0.48,0.601l-0.481,0.6l-0.484,0.598l-0.484,0.596l-0.487,0.595l-0.489,0.593l-0.49,0.592l-0.492,0.591l-0.493,0.589l-0.496,0.588l-0.497,0.586l-0.498,0.584l-0.501,0.583l-0.502,0.581l-0.504,0.58l-0.506,0.579l-0.507,0.577l-0.509,0.575l-0.511,0.574l-0.512,0.572l-0.514,0.571l-0.516,0.569l-0.518,0.568l-0.519,0.566l-0.521,0.564l-0.522,0.563l-0.525,0.562l-0.525,0.559l-0.528,0.559l-0.529,0.556l-0.531,0.555l-0.532,0.554l-0.534,0.552l-0.536,0.55l-0.537,0.548l-0.539,0.548l-0.541,0.545l-0.542,0.544l-0.544,0.542l-0.545,0.541l-0.548,0.539l-0.548,0.537l-0.55,0.536l-0.552,0.534l-0.554,0.532l-0.555,0.531l-0.556,0.529l-0.559,0.528l-0.559,0.525l-0.562,0.525l-0.563,0.522l-0.564,0.521l-0.566,0.519l-0.568,0.518l-0.569,0.516l-0.571,0.514l-0.572,0.512l-0.574,0.511l-0.575,0.509l-0.577,0.507l-0.579,0.506l-0.58,0.504l-0.581,0.502l-0.583,0.501l-0.584,0.498l-0.586,0.497l-0.588,0.496l-0.589,0.493l-0.591,0.492l-0.592,0.49l-0.593,0.489l-0.595,0.487l-0.596,0.484l-0.598,0.484l-0.6,0.481l-0.601,0.48l-0.602,0.477l-0.604,0.477l-0.605,0.474l-0.607,0.472l-0.608,0.471l-0.61,0.469l-0.611,0.467l-0.612,0.466l-0.614,0.463l-0.616,0.462l-0.617,0.46l-0.618,0.458l-0.62,0.457l-0.621,0.454l-0.622,0.453l-0.624,0.451l-0.625,0.449l-0.627,0.447l-0.628,0.445l-0.63,0.444l-0.63,0.442l-0.633,0.439l-0.633,0.438l-0.635,0.437l-0.637,0.434l-0.638,0.432l-0.639,0.431l-0.64,0.428l-0.642,0.427l-0.643,0.425l-0.645,0.423l-0.646,0.421l-0.647,0.42l-0.648,0.417l-0.65,0.415l-0.652,0.414l-0.652,0.412l-0.654,0.409l-0.655,0.408l-0.657,0.406l-0.658,0.404l-0.659,0.402l-0.66,0.4l-0.662,0.398l-0.663,0.396l-0.664,0.395l-0.666,0.392l-0.667,0.391l-0.668,0.388l-0.669,0.386l-0.671,0.385l-0.672,0.382l-0.673,0.381l-0.675,0.379l-0.675,0.376l-0.677,0.375l-0.679,0.372l-0.679,0.371l-0.681,0.369l-0.682,0.366l-0.683,0.365l-0.684,0.363l-0.686,0.36l-0.687,0.359l-0.688,0.357l-0.689,0.354l-0.691,0.353l-0.691,0.35l-0.693,0.349l-0.694,0.346l-0.696,0.345l-0.696,0.342l-0.698,0.34l-0.699,0.338l-0.7,0.337l-0.701,0.334l-0.702,0.332l-0.704,0.33l-0.704,0.328l-0.706,0.326l-0.707,0.323l-0.708,0.322l-0.71,0.32l-0.71,0.317l-0.712,0.316l-0.712,0.313l-0.714,0.311l-0.715,0.309l-0.716,0.307l-0.717,0.305l-0.718,0.303l-0.72,0.3l-0.72,0.299l-0.722,0.296l-0.723,0.294l-0.723,0.292l-0.725,0.29l-0.726,0.288l-0.727,0.286l-0.728,0.283l-0.73,0.281l-0.73,0.28l-0.731,0.277l-0.733,0.274l-0.733,0.273l-0.735,0.27l-0.735,0.269l-0.737,0.266l-0.737,0.264l-0.739,0.261l-0.74,0.26l-0.74,0.257l-0.742,0.255l-0.743,0.253l-0.744,0.251l-0.745,0.248l-0.745,0.246l-0.747,0.244l-0.748,0.242l-0.749,0.239l-0.75,0.238l-0.751,0.235l-0.751,0.232l-0.753,0.231l-0.754,0.228l-0.755,0.226l-0.755,0.224l-0.757,0.221l-0.758,0.22l-0.758,0.217l-0.76,0.214l-0.76,0.213l-0.762,0.21l-0.762,0.207l-0.764,0.206l-0.764,0.203l-0.765,0.201l-0.766,0.199l-0.767,0.196l-0.768,0.194l-0.769,0.191l-0.77,0.19l-0.771,0.187l-0.771,0.184l-0.773,0.183l-0.773,0.18l-0.774,0.177l-0.776,0.176l-0.776,0.173l-0.777,0.17l-0.778,0.169l-0.778,0.165l-0.78,0.164l-0.78,0.161l-0.782,0.159l-0.782,0.156l-0.783,0.154l-0.784,0.152l-0.784,0.149l-0.786,0.147l-0.786,0.144l-0.787,0.143l-0.788,0.139l-0.789,0.137l-0.79,0.135l-0.79,0.133l-0.792,0.13l-0.792,0.127l-0.793,0.125l-0.794,0.123l-0.794,0.12l-0.795,0.118l-0.797,0.116l-0.796,0.112l-0.798,0.111l-0.799,0.108l-0.799,0.106l-0.8,0.103l-0.801,0.1l-0.801,0.098l-0.802,0.096l-0.803,0.093l-0.804,0.091l-0.805,0.088l-0.805,0.086l-0.806,0.083l-0.807,0.081l-0.807,0.078l-0.809,0.076l-0.808,0.073l-0.81,0.071l-0.81,0.068l-0.812,0.066l-0.811,0.063l-0.813,0.061l-0.813,0.058l-0.814,0.055l-0.814,0.053l-0.816,0.051l-0.816,0.047l-0.816,0.046l-0.818,0.043l-0.818,0.04l-0.818,0.038l-0.82,0.035l-0.819,0.032l-0.821,0.03l-0.821,0.027l-0.822,0.025l-0.823,0.022l-0.823,0.02l-0.824,0.017l-0.824,0.014l-0.825,0.012l-0.826,0.009l-0.826,0.007l-0.827,0.004l-0.828,0.001l-0.828,-0.001l-0.827,-0.004l-0.826,-0.007l-0.826,-0.009l-0.825,-0.012l-0.824,-0.014l-0.824,-0.017l-0.823,-0.02l-0.823,-0.022l-0.822,-0.025l-0.821,-0.027l-0.821,-0.03l-0.819,-0.032l-0.82,-0.035l-0.818,-0.038l-0.818,-0.04l-0.818,-0.043l-0.816,-0.046l-0.816,-0.047l-0.816,-0.051l-0.814,-0.053l-0.814,-0.055l-0.813,-0.058l-0.813,-0.061l-0.811,-0.063l-0.812,-0.066l-0.81,-0.068l-0.81,-0.071l-0.808,-0.073l-0.809,-0.076l-0.807,-0.078l-0.807,-0.081l-0.806,-0.083l-0.805,-0.086l-0.805,-0.088l-0.804,-0.091l-0.803,-0.093l-0.802,-0.096l-0.801,-0.098l-0.801,-0.1l-0.8,-0.103l-0.799,-0.106l-0.799,-0.108l-0.798,-0.111l-0.796,-0.112l-0.797,-0.116l-0.795,-0.118l-0.794,-0.12l-0.794,-0.123l-0.793,-0.125l-0.792,-0.127l-0.792,-0.13l-0.79,-0.133l-0.79,-0.135l-0.789,-0.137l-0.788,-0.139l-0.787,-0.143l-0.786,-0.144l-0.786,-0.147l-0.784,-0.149l-0.784,-0.152l-0.783,-0.154l-0.782,-0.156l-0.782,-0.159l-0.78,-0.161l-0.78,-0.164l-0.778,-0.165l-0.778,-0.169l-0.777,-0.17l-0.776,-0.173l-0.776,-0.176l-0.774,-0.177l-0.773,-0.18l-0.773,-0.183l-0.771,-0.184l-0.771,-0.187l-0.77,-0.19l-0.769,-0.191l-0.768,-0.194l-0.767,-0.196l-0.766,-0.199l-0.765,-0.201l-0.764,-0.203l-0.764,-0.206l-0.762,-0.207l-0.762,-0.21l-0.76,-0.213l-0.76,-0.214l-0.758,-0.217l-0.758,-0.22l-0.757,-0.221l-0.755,-0.224l-0.755,-0.226l-0.754,-0.228l-0.753,-0.231l-0.751,-0.232l-0.751,-0.235l-0.75,-0.238l-0.749,-0.239l-0.748,-0.242l-0.747,-0.244l-0.745,-0.246l-0.745,-0.248l-0.744,-0.251l-0.743,-0.253l-0.742,-0.255l-0.74,-0.257l-0.74,-0.26l-0.739,-0.261l-0.737,-0.264l-0.737,-0.266l-0.735,-0.269l-0.735,-0.27l-0.733,-0.273l-0.733,-0.274l-0.731,-0.277l-0.73,-0.28l-0.73,-0.281l-0.728,-0.283l-0.727,-0.286l-0.726,-0.288l-0.725,-0.29l-0.723,-0.292l-0.723,-0.294l-0.722,-0.296l-0.72,-0.299l-0.72,-0.3l-0.718,-0.303l-0.717,-0.305l-0.716,-0.307l-0.715,-0.309l-0.714,-0.311l-0.712,-0.313l-0.712,-0.316l-0.71,-0.317l-0.71,-0.32l-0.708,-0.322l-0.707,-0.323l-0.706,-0.326l-0.704,-0.328l-0.704,-0.33l-0.702,-0.332l-0.701,-0.334l-0.7,-0.337l-0.699,-0.338l-0.698,-0.34l-0.696,-0.342l-0.696,-0.345l-0.694,-0.346l-0.693,-0.349l-0.691,-0.35l-0.691,-0.353l-0.689,-0.354l-0.688,-0.357l-0.687,-0.359l-0.686,-0.36l-0.684,-0.363l-0.683,-0.365l-0.682,-0.366l-0.681,-0.369l-0.679,-0.371l-0.679,-0.372l-0.677,-0.375l-0.675,-0.376l-0.675,-0.379l-0.673,-0.381l-0.672,-0.382l-0.671,-0.385l-0.669,-0.386l-0.668,-0.388l-0.667,-0.391l-0.666,-0.392l-0.664,-0.395l-0.663,-0.396l-0.662,-0.398l-0.66,-0.4l-0.659,-0.402l-0.658,-0.404l-0.657,-0.406l-0.655,-0.408l-0.654,-0.409l-0.652,-0.412l-0.652,-0.414l-0.65,-0.415l-0.648,-0.417l-0.647,-0.42l-0.646,-0.421l-0.645,-0.423l-0.643,-0.425l-0.642,-0.427l-0.64,-0.428l-0.639,-0.431l-0.638,-0.432l-0.637,-0.434l-0.635,-0.437l-0.633,-0.438l-0.633,-0.439l-0.63,-0.442l-0.63,-0.444l-0.628,-0.445l-0.627,-0.447l-0.625,-0.449l-0.624,-0.451l-0.622,-0.453l-0.621,-0.454l-0.62,-0.457l-0.618,-0.458l-0.617,-0.46l-0.616,-0.462l-0.614,-0.463l-0.612,-0.466l-0.611,-0.467l-0.61,-0.469l-0.608,-0.471l-0.607,-0.472l-0.605,-0.474l-0.604,-0.477l-0.602,-0.477l-0.601,-0.48l-0.6,-0.481l-0.598,-0.484l-0.596,-0.484l-0.595,-0.487l-0.593,-0.489l-0.592,-0.49l-0.591,-0.492l-0.589,-0.493l-0.588,-0.496l-0.586,-0.497l-0.584,-0.498l-0.583,-0.501l-0.581,-0.502l-0.58,-0.504l-0.579,-0.506l-0.577,-0.507l-0.575,-0.509l-0.574,-0.511l-0.572,-0.512l-0.571,-0.514l-0.569,-0.516l-0.568,-0.518l-0.566,-0.519l-0.564,-0.521l-0.563,-0.522l-0.562,-0.525l-0.559,-0.525l-0.559,-0.528l-0.556,-0.529l-0.555,-0.531l-0.554,-0.532l-0.552,-0.534l-0.55,-0.536l-0.548,-0.537l-0.548,-0.539l-0.545,-0.541l-0.544,-0.542l-0.542,-0.544l-0.541,-0.545l-0.539,-0.548l-0.537,-0.548l-0.536,-0.55l-0.534,-0.552l-0.532,-0.554l-0.531,-0.555l-0.529,-0.556l-0.528,-0.559l-0.525,-0.559l-0.525,-0.562l-0.522,-0.563l-0.521,-0.564l-0.519,-0.566l-0.518,-0.568l-0.516,-0.569l-0.514,-0.571l-0.512,-0.572l-0.511,-0.574l-0.509,-0.575l-0.507,-0.577l-0.506,-0.579l-0.504,-0.58l-0.502,-0.581l-0.501,-0.583l-0.498,-0.584l-0.497,-0.586l-0.496,-0.588l-0.493,-0.589l-0.492,-0.591l-0.49,-0.592l-0.489,-0.593l-0.487,-0.595l-0.484,-0.596l-0.484,-0.598l-0.481,-0.6l-0.48,-0.601l-0.477,-0.602l-0.477,-0.604l-0.474,-0.605l-0.472,-0.607l-0.471,-0.608l-0.469,-0.61l-0.467,-0.611l-0.466,-0.612l-0.463,-0.614l-0.462,-0.616l-0.46,-0.617l-0.458,-0.618l-0.457,-0.62l-0.454,-0.621l-0.453,-0.622l-0.451,-0.624l-0.449,-0.625l-0.447,-0.627l-0.445,-0.628l-0.444,-0.63l-0.442,-0.63l-0.439,-0.633l-0.438,-0.633l-0.437,-0.635l-0.434,-0.637l-0.432,-0.638l-0.431,-0.639l-0.428,-0.64l-0.427,-0.642l-0.425,-0.643l-0.423,-0.645l-0.421,-0.646l-0.42,-0.647l-0.417,-0.648l-0.415,-0.65l-0.414,-0.652l-0.412,-0.652l-0.409,-0.654l-0.408,-0.655l-0.406,-0.657l-0.404,-0.658l-0.402,-0.659l-0.4,-0.66l-0.398,-0.662l-0.396,-0.663l-0.395,-0.664l-0.392,-0.666l-0.391,-0.667l-0.388,-0.668l-0.386,-0.669l-0.385,-0.671l-0.382,-0.672l-0.381,-0.673l-0.379,-0.675l-0.376,-0.675l-0.375,-0.677l-0.372,-0.679l-0.371,-0.679l-0.369,-0.681l-0.366,-0.682l-0.365,-0.683l-0.363,-0.684l-0.36,-0.686l-0.359,-0.687l-0.357,-0.688l-0.354,-0.689l-0.353,-0.691l-0.35,-0.691l-0.349,-0.693l-0.346,-0.694l-0.345,-0.696l-0.342,-0.696l-0.34,-0.698l-0.338,-0.699l-0.337,-0.7l-0.334,-0.701l-0.332,-0.702l-0.33,-0.704l-0.328,-0.704l-0.326,-0.706l-0.323,-0.707l-0.322,-0.708l-0.32,-0.71l-0.317,-0.71l-0.316,-0.712l-0.313,-0.712l-0.311,-0.714l-0.309,-0.715l-0.307,-0.716l-0.305,-0.717l-0.303,-0.718l-0.3,-0.72l-0.299,-0.72l-0.296,-0.722l-0.294,-0.723l-0.292,-0.723l-0.29,-0.725l-0.288,-0.726l-0.286,-0.727l-0.283,-0.728l-0.281,-0.73l-0.28,-0.73l-0.277,-0.731l-0.274,-0.733l-0.273,-0.733l-0.27,-0.735l-0.269,-0.735l-0.266,-0.737l-0.264,-0.737l-0.261,-0.739l-0.26,-0.74l-0.257,-0.74l-0.255,-0.742l-0.253,-0.743l-0.251,-0.744l-0.248,-0.745l-0.246,-0.745l-0.244,-0.747l-0.242,-0.748l-0.239,-0.749l-0.238,-0.75l-0.235,-0.751l-0.232,-0.751l-0.231,-0.753l-0.228,-0.754l-0.226,-0.755l-0.224,-0.755l-0.221,-0.757l-0.22,-0.758l-0.217,-0.758l-0.214,-0.76l-0.213,-0.76l-0.21,-0.762l-0.207,-0.762l-0.206,-0.764l-0.203,-0.764l-0.201,-0.765l-0.199,-0.766l-0.196,-0.767l-0.194,-0.768l-0.191,-0.769l-0.19,-0.77l-0.187,-0.771l-0.184,-0.771l-0.183,-0.773l-0.18,-0.773l-0.177,-0.774l-0.176,-0.776l-0.173,-0.776l-0.17,-0.777l-0.169,-0.778l-0.165,-0.778l-0.164,-0.78l-0.161,-0.78l-0.159,-0.782l-0.156,-0.782l-0.154,-0.783l-0.152,-0.784l-0.149,-0.784l-0.147,-0.786l-0.144,-0.786l-0.143,-0.787l-0.139,-0.788l-0.137,-0.789l-0.135,-0.79l-0.133,-0.79l-0.13,-0.792l-0.127,-0.792l-0.125,-0.793l-0.123,-0.794l-0.12,-0.794l-0.118,-0.795l-0.116,-0.797l-0.112,-0.796l-0.111,-0.798l-0.108,-0.799l-0.106,-0.799l-0.103,-0.8l-0.1,-0.801l-0.098,-0.801l-0.096,-0.802l-0.093,-0.803l-0.091,-0.804l-0.088,-0.805l-0.086,-0.805l-0.083,-0.806l-0.081,-0.807l-0.078,-0.807l-0.076,-0.809l-0.073,-0.808l-0.071,-0.81l-0.068,-0.81l-0.066,-0.812l-0.063,-0.811l-0.061,-0.813l-0.058,-0.813l-0.055,-0.814l-0.053,-0.814l-0.051,-0.816l-0.047,-0.816l-0.046,-0.816l-0.043,-0.818l-0.04,-0.818l-0.038,-0.818l-0.035,-0.82l-0.032,-0.819l-0.03,-0.821l-0.027,-0.821l-0.025,-0.822l-0.022,-0.823l-0.02,-0.823l-0.017,-0.824l-0.014,-0.824l-0.012,-0.825l-0.009,-0.826l-0.007,-0.826l-0.004,-0.827l-0.001,-0.828l0.001,-0.828l0.004,-0.827l0.007,-0.826l0.009,-0.826l0.012,-0.825l0.014,-0.824l0.017,-0.824l0.02,-0.823l0.022,-0.823l0.025,-0.822l0.027,-0.821l0.03,-0.821l0.032,-0.819l0.035,-0.82l0.038,-0.818l0.04,-0.818l0.043,-0.818l0.046,-0.816l0.047,-0.816l0.051,-0.816l0.053,-0.814l0.055,-0.814l0.058,-0.813l0.061,-0.813l0.063,-0.811l0.066,-0.812l0.068,-0.81l0.071,-0.81l0.073,-0.808l0.076,-0.809l0.078,-0.807l0.081,-0.807l0.083,-0.806l0.086,-0.805l0.088,-0.805l0.091,-0.804l0.093,-0.803l0.096,-0.802l0.098,-0.801l0.1,-0.801l0.103,-0.8l0.106,-0.799l0.108,-0.799l0.111,-0.798l0.112,-0.796l0.116,-0.797l0.118,-0.795l0.12,-0.794l0.123,-0.794l0.125,-0.793l0.127,-0.792l0.13,-0.792l0.133,-0.79l0.135,-0.79l0.137,-0.789l0.139,-0.788l0.143,-0.787l0.144,-0.786l0.147,-0.786l0.149,-0.784l0.152,-0.784l0.154,-0.783l0.156,-0.782l0.159,-0.782l0.161,-0.78l0.164,-0.78l0.165,-0.778l0.169,-0.778l0.17,-0.777l0.173,-0.776l0.176,-0.776l0.177,-0.774l0.18,-0.773l0.183,-0.773l0.184,-0.771l0.187,-0.771l0.19,-0.77l0.191,-0.769l0.194,-0.768l0.196,-0.767l0.199,-0.766l0.201,-0.765l0.203,-0.764l0.206,-0.764l0.207,-0.762l0.21,-0.762l0.213,-0.76l0.214,-0.76l0.217,-0.758l0.22,-0.758l0.221,-0.757l0.224,-0.755l0.226,-0.755l0.228,-0.754l0.231,-0.753l0.232,-0.751l0.235,-0.751l0.238,-0.75l0.239,-0.749l0.242,-0.748l0.244,-0.747l0.246,-0.745l0.248,-0.745l0.251,-0.744l0.253,-0.743l0.255,-0.742l0.257,-0.74l0.26,-0.74l0.261,-0.739l0.264,-0.737l0.266,-0.737l0.269,-0.735l0.27,-0.735l0.273,-0.733l0.274,-0.733l0.277,-0.731l0.28,-0.73l0.281,-0.73l0.283,-0.728l0.286,-0.727l0.288,-0.726l0.29,-0.725l0.292,-0.723l0.294,-0.723l0.296,-0.722l0.299,-0.72l0.3,-0.72l0.303,-0.718l0.305,-0.717l0.307,-0.716l0.309,-0.715l0.311,-0.714l0.313,-0.712l0.316,-0.712l0.317,-0.71l0.32,-0.71l0.322,-0.708l0.323,-0.707l0.326,-0.706l0.328,-0.704l0.33,-0.704l0.332,-0.702l0.334,-0.701l0.337,-0.7l0.338,-0.699l0.34,-0.698l0.342,-0.696l0.345,-0.696l0.346,-0.694l0.349,-0.693l0.35,-0.691l0.353,-0.691l0.354,-0.689l0.357,-0.688l0.359,-0.687l0.36,-0.686l0.363,-0.684l0.365,-0.683l0.366,-0.682l0.369,-0.681l0.371,-0.679l0.372,-0.679l0.375,-0.677l0.376,-0.675l0.379,-0.675l0.381,-0.673l0.382,-0.672l0.385,-0.671l0.386,-0.669l0.388,-0.668l0.391,-0.667l0.392,-0.666l0.395,-0.664l0.396,-0.663l0.398,-0.662l0.4,-0.66l0.402,-0.659l0.404,-0.658l0.406,-0.657l0.408,-0.655l0.409,-0.654l0.412,-0.652l0.414,-0.652l0.415,-0.65l0.417,-0.648l0.42,-0.647l0.421,-0.646l0.423,-0.645l0.425,-0.643l0.427,-0.642l0.428,-0.64l0.431,-0.639l0.432,-0.638l0.434,-0.637l0.437,-0.635l0.438,-0.633l0.439,-0.633l0.442,-0.63l0.444,-0.63l0.445,-0.628l0.447,-0.627l0.449,-0.625l0.451,-0.624l0.453,-0.622l0.454,-0.621l0.457,-0.62l0.458,-0.618l0.46,-0.617l0.462,-0.616l0.463,-0.614l0.466,-0.612l0.467,-0.611l0.469,-0.61l0.471,-0.608l0.472,-0.607l0.474,-0.605l0.477,-0.604l0.477,-0.602l0.48,-0.601l0.481,-0.6l0.484,-0.598l0.484,-0.596l0.487,-0.595l0.489,-0.593l0.49,-0.592l0.492,-0.591l0.493,-0.589l0.496,-0.588l0.497,-0.586l0.498,-0.584l0.501,-0.583l0.502,-0.581l0.504,-0.58l0.506,-0.579l0.507,-0.577l0.509,-0.575l0.511,-0.574l0.512,-0.572l0.514,-0.571l0.516,-0.569l0.518,-0.568l0.519,-0.566l0.521,-0.564l0.522,-0.563l0.525,-0.562l0.525,-0.559l0.528,-0.559l0.529,-0.556l0.531,-0.555l0.532,-0.554l0.534,-0.552l0.536,-0.55l0.537,-0.548l0.539,-0.548l0.541,-0.545l0.542,-0.544l0.544,-0.542l0.545,-0.541l0.548,-0.539l0.548,-0.537l0.55,-0.536l0.552,-0.534l0.554,-0.532l0.555,-0.531l0.556,-0.529l0.559,-0.528l0.559,-0.525l0.562,-0.525l0.563,-0.522l0.564,-0.521l0.566,-0.519l0.568,-0.518l0.569,-0.516l0.571,-0.514l0.572,-0.512l0.574,-0.511l0.575,-0.509l0.577,-0.507l0.579,-0.506l0.58,-0.504l0.581,-0.502l0.583,-0.501l0.584,-0.498l0.586,-0.497l0.588,-0.496l0.589,-0.493l0.591,-0.492l0.592,-0.49l0.593,-0.489l0.595,-0.487l0.596,-0.484l0.598,-0.484l0.6,-0.481l0.601,-0.48l0.602,-0.477l0.604,-0.477l0.605,-0.474l0.607,-0.472l0.608,-0.471l0.61,-0.469l0.611,-0.467l0.612,-0.466l0.614,-0.463l0.616,-0.462l0.617,-0.46l0.618,-0.458l0.62,-0.457l0.621,-0.454l0.622,-0.453l0.624,-0.451l0.625,-0.449l0.627,-0.447l0.628,-0.445l0.63,-0.444l0.63,-0.442l0.633,-0.439l0.633,-0.438l0.635,-0.437l0.637,-0.434l0.638,-0.432l0.639,-0.431l0.64,-0.428l0.642,-0.427l0.643,-0.425l0.645,-0.423l0.646,-0.421l0.647,-0.42l0.648,-0.417l0.65,-0.415l0.652,-0.414l0.652,-0.412l0.654,-0.409l0.655,-0.408l0.657,-0.406l0.658,-0.404l0.659,-0.402l0.66,-0.4l0.662,-0.398l0.663,-0.396l0.664,-0.395l0.666,-0.392l0.667,-0.391l0.668,-0.388l0.669,-0.386l0.671,-0.385l0.672,-0.382l0.673,-0.381l0.675,-0.379l0.675,-0.376l0.677,-0.375l0.679,-0.372l0.679,-0.371l0.681,-0.369l0.682,-0.366l0.683,-0.365l0.684,-0.363l0.686,-0.36l0.687,-0.359l0.688,-0.357l0.689,-0.354l0.691,-0.353l0.691,-0.35l0.693,-0.349l0.694,-0.346l0.696,-0.345l0.696,-0.342l0.698,-0.34l0.699,-0.338l0.7,-0.337l0.701,-0.334l0.702,-0.332l0.704,-0.33l0.704,-0.328l0.706,-0.326l0.707,-0.323l0.708,-0.322l0.71,-0.32l0.71,-0.317l0.712,-0.316l0.712,-0.313l0.714,-0.311l0.715,-0.309l0.716,-0.307l0.717,-0.305l0.718,-0.303l0.72,-0.3l0.72,-0.299l0.722,-0.296l0.723,-0.294l0.723,-0.292l0.725,-0.29l0.726,-0.288l0.727,-0.286l0.728,-0.283l0.73,-0.281l0.73,-0.28l0.731,-0.277l0.733,-0.274l0.733,-0.273l0.735,-0.27l0.735,-0.269l0.737,-0.266l0.737,-0.264l0.739,-0.261l0.74,-0.26l0.74,-0.257l0.742,-0.255l0.743,-0.253l0.744,-0.251l0.745,-0.248l0.745,-0.246l0.747,-0.244l0.748,-0.242l0.749,-0.239l0.75,-0.238l0.751,-0.235l0.751,-0.232l0.753,-0.231l0.754,-0.228l0.755,-0.226l0.755,-0.224l0.757,-0.221l0.758,-0.22l0.758,-0.217l0.76,-0.214l0.76,-0.213l0.762,-0.21l0.762,-0.207l0.764,-0.206l0.764,-0.203l0.765,-0.201l0.766,-0.199l0.767,-0.196l0.768,-0.194l0.769,-0.191l0.77,-0.19l0.771,-0.187l0.771,-0.184l0.773,-0.183l0.773,-0.18l0.774,-0.177l0.776,-0.176l0.776,-0.173l0.777,-0.17l0.778,-0.169l0.778,-0.165l0.78,-0.164l0.78,-0.161l0.782,-0.159l0.782,-0.156l0.783,-0.154l0.784,-0.152l0.784,-0.149l0.786,-0.147l0.786,-0.144l0.787,-0.143l0.788,-0.139l0.789,-0.137l0.79,-0.135l0.79,-0.133l0.792,-0.13l0.792,-0.127l0.793,-0.125l0.794,-0.123l0.794,-0.12l0.795,-0.118l0.797,-0.116l0.796,-0.112l0.798,-0.111l0.799,-0.108l0.799,-0.106l0.8,-0.103l0.801,-0.1l0.801,-0.098l0.802,-0.096l0.803,-0.093l0.804,-0.091l0.805,-0.088l0.805,-0.086l0.806,-0.083l0.807,-0.081l0.807,-0.078l0.809,-0.076l0.808,-0.073l0.81,-0.071l0.81,-0.068l0.812,-0.066l0.811,-0.063l0.813,-0.061l0.813,-0.058l0.814,-0.055l0.814,-0.053l0.816,-0.051l0.816,-0.047l0.816,-0.046l0.818,-0.043l0.818,-0.04l0.818,-0.038l0.82,-0.035l0.819,-0.032l0.821,-0.03l0.821,-0.027l0.822,-0.025l0.823,-0.022l0.823,-0.02l0.824,-0.017l0.824,-0.014l0.825,-0.012l0.826,-0.009l0.826,-0.007l0.827,-0.004l0.828,-0.001l0.828,0.001Zm-1.624,10l-0.795,0.004l-0.795,0.006l-0.794,0.009l-0.793,0.011l-0.793,0.014l-0.792,0.017l-0.792,0.018l-0.79,0.022l-0.791,0.024l-0.789,0.026l-0.789,0.029l-0.788,0.031l-0.788,0.034l-0.787,0.036l-0.786,0.039l-0.786,0.041l-0.785,0.043l-0.784,0.046l-0.784,0.049l-0.783,0.051l-0.782,0.053l-0.782,0.056l-0.781,0.058l-0.78,0.061l-0.78,0.063l-0.779,0.066l-0.778,0.067l-0.777,0.071l-0.777,0.073l-0.776,0.075l-0.775,0.077l-0.775,0.08l-0.774,0.083l-0.773,0.085l-0.772,0.087l-0.772,0.089l-0.771,0.092l-0.77,0.095l-0.77,0.096l-0.768,0.099l-0.768,0.102l-0.768,0.104l-0.766,0.106l-0.766,0.108l-0.765,0.111l-0.764,0.113l-0.763,0.116l-0.763,0.118l-0.762,0.12l-0.761,0.123l-0.76,0.125l-0.76,0.127l-0.758,0.129l-0.758,0.132l-0.757,0.134l-0.756,0.137l-0.756,0.139l-0.755,0.141l-0.754,0.143l-0.753,0.146l-0.752,0.148l-0.751,0.15l-0.751,0.152l-0.75,0.155l-0.749,0.157l-0.748,0.16l-0.747,0.161l-0.746,0.164l-0.746,0.166l-0.744,0.169l-0.744,0.17l-0.743,0.173l-0.742,0.176l-0.742,0.177l-0.74,0.18l-0.74,0.181l-0.738,0.185l-0.738,0.186l-0.737,0.188l-0.736,0.191l-0.735,0.193l-0.734,0.195l-0.733,0.198l-0.733,0.199l-0.731,0.202l-0.731,0.204l-0.729,0.206l-0.729,0.209l-0.728,0.21l-0.727,0.213l-0.726,0.215l-0.725,0.217l-0.724,0.219l-0.723,0.222l-0.722,0.223l-0.721,0.226l-0.721,0.228l-0.719,0.23l-0.718,0.232l-0.718,0.235l-0.716,0.236l-0.716,0.239l-0.714,0.241l-0.714,0.243l-0.712,0.245l-0.712,0.247l-0.71,0.249l-0.71,0.251l-0.709,0.254l-0.707,0.255l-0.707,0.258l-0.705,0.26l-0.705,0.262l-0.704,0.264l-0.702,0.266l-0.701,0.268l-0.701,0.27l-0.7,0.273l-0.698,0.274l-0.697,0.276l-0.697,0.279l-0.695,0.28l-0.694,0.283l-0.694,0.285l-0.692,0.286l-0.691,0.289l-0.69,0.291l-0.689,0.293l-0.688,0.295l-0.687,0.297l-0.685,0.299l-0.685,0.301l-0.684,0.303l-0.682,0.305l-0.682,0.307l-0.68,0.309l-0.679,0.311l-0.678,0.313l-0.677,0.315l-0.676,0.317l-0.675,0.319l-0.674,0.321l-0.672,0.323l-0.672,0.325l-0.67,0.327l-0.669,0.329l-0.668,0.331l-0.667,0.333l-0.666,0.335l-0.664,0.336l-0.664,0.339l-0.662,0.341l-0.661,0.343l-0.66,0.344l-0.659,0.347l-0.658,0.348l-0.656,0.35l-0.655,0.353l-0.654,0.354l-0.653,0.356l-0.652,0.358l-0.65,0.36l-0.65,0.362l-0.648,0.364l-0.647,0.366l-0.646,0.367l-0.644,0.37l-0.643,0.371l-0.642,0.373l-0.641,0.375l-0.64,0.377l-0.638,0.379l-0.637,0.381l-0.636,0.383l-0.635,0.384l-0.633,0.386l-0.632,0.389l-0.631,0.39l-0.63,0.392l-0.628,0.393l-0.627,0.396l-0.626,0.397l-0.625,0.4l-0.623,0.401l-0.622,0.403l-0.621,0.404l-0.619,0.407l-0.618,0.408l-0.617,0.41l-0.616,0.412l-0.614,0.414l-0.613,0.416l-0.612,0.417l-0.61,0.419l-0.609,0.421l-0.608,0.423l-0.606,0.424l-0.605,0.427l-0.603,0.428l-0.603,0.43l-0.601,0.431l-0.599,0.433l-0.599,0.436l-0.597,0.436l-0.595,0.439l-0.595,0.44l-0.592,0.442l-0.592,0.444l-0.59,0.446l-0.589,0.447l-0.587,0.449l-0.586,0.451l-0.584,0.452l-0.584,0.455l-0.581,0.455l-0.581,0.458l-0.579,0.459l-0.577,0.461l-0.576,0.463l-0.575,0.464l-0.573,0.466l-0.572,0.468l-0.571,0.47l-0.569,0.471l-0.567,0.473l-0.567,0.474l-0.564,0.476l-0.563,0.478l-0.562,0.479l-0.561,0.481l-0.558,0.483l-0.558,0.485l-0.556,0.486l-0.554,0.487l-0.554,0.49l-0.551,0.491l-0.55,0.492l-0.549,0.494l-0.547,0.496l-0.545,0.498l-0.544,0.499l-0.543,0.5l-0.541,0.502l-0.54,0.504l-0.538,0.506l-0.537,0.507l-0.535,0.509l-0.533,0.51l-0.532,0.511l-0.53,0.514l-0.529,0.515l-0.528,0.516l-0.526,0.518l-0.524,0.52l-0.523,0.521l-0.521,0.523l-0.52,0.524l-0.518,0.526l-0.516,0.528l-0.515,0.528l-0.514,0.531l-0.511,0.532l-0.51,0.533l-0.509,0.536l-0.507,0.536l-0.506,0.538l-0.503,0.54l-0.503,0.541l-0.5,0.542l-0.499,0.545l-0.498,0.545l-0.496,0.547l-0.494,0.549l-0.493,0.55l-0.49,0.552l-0.489,0.552l-0.488,0.555l-0.487,0.556l-0.484,0.557l-0.482,0.559l-0.482,0.561l-0.479,0.561l-0.478,0.564l-0.476,0.564l-0.474,0.567l-0.473,0.567l-0.471,0.569l-0.47,0.571l-0.468,0.572l-0.466,0.573l-0.464,0.575l-0.463,0.576l-0.461,0.577l-0.459,0.579l-0.458,0.581l-0.455,0.581l-0.455,0.584l-0.452,0.584l-0.451,0.586l-0.449,0.588l-0.447,0.588l-0.446,0.59l-0.444,0.592l-0.442,0.593l-0.44,0.594l-0.439,0.595l-0.437,0.597l-0.435,0.599l-0.433,0.599l-0.432,0.601l-0.429,0.603l-0.428,0.603l-0.427,0.605l-0.424,0.606l-0.423,0.608l-0.421,0.609l-0.419,0.61l-0.417,0.612l-0.416,0.613l-0.414,0.614l-0.412,0.616l-0.41,0.617l-0.408,0.618l-0.407,0.619l-0.404,0.621l-0.403,0.622l-0.402,0.623l-0.399,0.625l-0.397,0.626l-0.396,0.627l-0.393,0.628l-0.392,0.63l-0.39,0.631l-0.389,0.632l-0.386,0.633l-0.384,0.635l-0.383,0.636l-0.381,0.637l-0.379,0.638l-0.377,0.64l-0.375,0.641l-0.373,0.642l-0.371,0.643l-0.37,0.645l-0.368,0.645l-0.365,0.647l-0.364,0.648l-0.362,0.65l-0.36,0.65l-0.358,0.652l-0.356,0.653l-0.354,0.654l-0.353,0.655l-0.35,0.656l-0.348,0.658l-0.347,0.659l-0.344,0.66l-0.343,0.661l-0.341,0.662l-0.338,0.664l-0.337,0.664l-0.335,0.666l-0.333,0.667l-0.331,0.668l-0.329,0.669l-0.327,0.67l-0.325,0.672l-0.323,0.672l-0.321,0.674l-0.319,0.675l-0.317,0.676l-0.315,0.677l-0.313,0.678l-0.311,0.679l-0.309,0.681l-0.307,0.681l-0.305,0.682l-0.303,0.684l-0.301,0.685l-0.299,0.685l-0.297,0.687l-0.295,0.688l-0.293,0.689l-0.291,0.69l-0.288,0.691l-0.287,0.692l-0.285,0.693l-0.283,0.695l-0.28,0.696l-0.279,0.695l-0.276,0.698l-0.275,0.699l-0.272,0.699l-0.27,0.7l-0.268,0.702l-0.266,0.702l-0.264,0.704l-0.262,0.705l-0.26,0.705l-0.258,0.707l-0.255,0.707l-0.254,0.709l-0.251,0.71l-0.249,0.71l-0.247,0.712l-0.246,0.712l-0.242,0.714l-0.241,0.714l-0.239,0.716l-0.236,0.716l-0.235,0.718l-0.232,0.718l-0.23,0.719l-0.228,0.721l-0.226,0.721l-0.223,0.722l-0.222,0.723l-0.219,0.725l-0.217,0.724l-0.215,0.726l-0.213,0.728l-0.21,0.727l-0.209,0.729l-0.206,0.729l-0.204,0.731l-0.202,0.731l-0.199,0.733l-0.198,0.733l-0.195,0.734l-0.193,0.735l-0.191,0.736l-0.188,0.737l-0.186,0.738l-0.185,0.739l-0.181,0.739l-0.18,0.74l-0.177,0.741l-0.176,0.743l-0.173,0.743l-0.17,0.743l-0.169,0.745l-0.166,0.746l-0.164,0.746l-0.161,0.748l-0.16,0.747l-0.157,0.749l-0.154,0.75l-0.153,0.751l-0.15,0.751l-0.148,0.752l-0.146,0.754l-0.143,0.753l-0.141,0.755l-0.139,0.755l-0.137,0.757l-0.134,0.757l-0.132,0.758l-0.129,0.759l-0.128,0.759l-0.124,0.76l-0.123,0.761l-0.12,0.762l-0.118,0.763l-0.116,0.763l-0.113,0.764l-0.111,0.765l-0.108,0.766l-0.106,0.766l-0.104,0.767l-0.102,0.769l-0.099,0.768l-0.096,0.77l-0.095,0.77l-0.092,0.771l-0.089,0.772l-0.087,0.772l-0.085,0.773l-0.083,0.774l-0.08,0.775l-0.077,0.775l-0.075,0.776l-0.073,0.777l-0.071,0.777l-0.067,0.778l-0.066,0.78l-0.063,0.779l-0.061,0.78l-0.058,0.781l-0.056,0.782l-0.053,0.782l-0.051,0.783l-0.049,0.783l-0.046,0.785l-0.043,0.785l-0.041,0.786l-0.039,0.786l-0.036,0.787l-0.034,0.787l-0.031,0.789l-0.029,0.789l-0.026,0.789l-0.024,0.791l-0.022,0.79l-0.018,0.792l-0.017,0.792l-0.014,0.793l-0.011,0.793l-0.009,0.794l-0.006,0.795l-0.004,0.795l-0.001,0.796l0.001,0.796l0.004,0.795l0.006,0.795l0.009,0.794l0.011,0.793l0.014,0.793l0.017,0.792l0.018,0.792l0.022,0.79l0.024,0.791l0.026,0.789l0.029,0.789l0.031,0.789l0.034,0.787l0.036,0.787l0.039,0.786l0.041,0.786l0.043,0.785l0.046,0.785l0.049,0.783l0.051,0.783l0.053,0.782l0.056,0.782l0.058,0.781l0.061,0.78l0.063,0.779l0.066,0.78l0.067,0.778l0.071,0.777l0.073,0.777l0.075,0.776l0.077,0.775l0.08,0.775l0.083,0.774l0.085,0.773l0.087,0.772l0.089,0.772l0.092,0.771l0.095,0.77l0.096,0.77l0.099,0.768l0.102,0.768l0.104,0.768l0.106,0.766l0.108,0.766l0.111,0.765l0.113,0.764l0.116,0.763l0.118,0.763l0.12,0.762l0.123,0.761l0.124,0.76l0.128,0.759l0.129,0.759l0.132,0.758l0.134,0.757l0.137,0.757l0.139,0.755l0.141,0.755l0.143,0.753l0.146,0.754l0.148,0.752l0.15,0.751l0.153,0.751l0.154,0.75l0.157,0.749l0.16,0.747l0.161,0.748l0.164,0.746l0.166,0.746l0.169,0.745l0.17,0.743l0.173,0.743l0.176,0.743l0.177,0.741l0.18,0.74l0.181,0.739l0.185,0.739l0.186,0.738l0.188,0.737l0.191,0.736l0.193,0.735l0.195,0.734l0.198,0.733l0.199,0.733l0.202,0.731l0.204,0.731l0.206,0.729l0.209,0.729l0.21,0.727l0.213,0.728l0.215,0.726l0.217,0.725l0.219,0.724l0.222,0.723l0.223,0.722l0.226,0.721l0.228,0.721l0.23,0.719l0.232,0.718l0.235,0.718l0.236,0.716l0.239,0.716l0.241,0.714l0.242,0.714l0.246,0.712l0.247,0.712l0.249,0.71l0.251,0.71l0.254,0.709l0.255,0.707l0.258,0.707l0.26,0.705l0.262,0.705l0.264,0.704l0.266,0.702l0.268,0.702l0.27,0.7l0.272,0.699l0.275,0.699l0.276,0.698l0.279,0.696l0.28,0.695l0.283,0.695l0.285,0.693l0.287,0.692l0.288,0.691l0.291,0.69l0.293,0.689l0.295,0.688l0.297,0.687l0.299,0.685l0.301,0.685l0.303,0.684l0.305,0.682l0.307,0.681l0.309,0.681l0.311,0.679l0.313,0.678l0.315,0.677l0.317,0.676l0.319,0.675l0.321,0.674l0.323,0.672l0.325,0.672l0.327,0.67l0.329,0.669l0.331,0.668l0.333,0.667l0.335,0.666l0.336,0.664l0.339,0.664l0.341,0.662l0.343,0.661l0.344,0.66l0.347,0.659l0.348,0.658l0.35,0.656l0.353,0.655l0.354,0.654l0.356,0.653l0.358,0.652l0.36,0.65l0.362,0.65l0.364,0.648l0.365,0.647l0.368,0.645l0.37,0.645l0.371,0.643l0.373,0.642l0.375,0.641l0.377,0.64l0.379,0.638l0.381,0.637l0.383,0.636l0.384,0.635l0.386,0.633l0.389,0.632l0.39,0.631l0.392,0.63l0.393,0.628l0.396,0.627l0.397,0.626l0.4,0.625l0.401,0.623l0.403,0.622l0.404,0.621l0.407,0.619l0.408,0.618l0.41,0.617l0.412,0.616l0.414,0.614l0.416,0.613l0.417,0.612l0.419,0.61l0.421,0.609l0.423,0.608l0.424,0.606l0.427,0.605l0.428,0.603l0.429,0.603l0.432,0.601l0.433,0.599l0.435,0.599l0.437,0.597l0.439,0.595l0.44,0.594l0.443,0.593l0.443,0.592l0.446,0.59l0.447,0.588l0.449,0.588l0.451,0.586l0.452,0.584l0.455,0.584l0.455,0.581l0.458,0.58l0.459,0.58l0.461,0.577l0.463,0.576l0.464,0.575l0.467,0.573l0.467,0.572l0.47,0.571l0.471,0.569l0.473,0.567l0.474,0.566l0.476,0.565l0.478,0.564l0.479,0.561l0.482,0.561l0.482,0.559l0.484,0.557l0.487,0.556l0.488,0.555l0.489,0.552l0.49,0.552l0.493,0.55l0.495,0.549l0.495,0.547l0.498,0.545l0.499,0.545l0.5,0.542l0.502,0.541l0.504,0.54l0.506,0.538l0.507,0.537l0.508,0.535l0.511,0.533l0.512,0.532l0.513,0.531l0.515,0.528l0.516,0.528l0.518,0.526l0.52,0.524l0.521,0.523l0.523,0.521l0.524,0.52l0.526,0.518l0.528,0.516l0.529,0.515l0.53,0.514l0.532,0.511l0.533,0.51l0.535,0.509l0.537,0.507l0.538,0.506l0.54,0.504l0.541,0.502l0.542,0.5l0.545,0.499l0.545,0.498l0.547,0.496l0.549,0.494l0.55,0.492l0.551,0.491l0.554,0.49l0.554,0.487l0.556,0.486l0.558,0.485l0.558,0.483l0.561,0.481l0.562,0.479l0.563,0.478l0.564,0.476l0.567,0.474l0.567,0.473l0.569,0.471l0.571,0.47l0.572,0.468l0.573,0.465l0.575,0.465l0.576,0.463l0.577,0.461l0.579,0.459l0.581,0.458l0.582,0.456l0.582,0.454l0.585,0.452l0.586,0.451l0.588,0.449l0.588,0.447l0.59,0.446l0.592,0.444l0.593,0.442l0.594,0.44l0.595,0.439l0.597,0.436l0.599,0.436l0.599,0.433l0.601,0.431l0.603,0.43l0.603,0.428l0.605,0.427l0.606,0.424l0.608,0.423l0.609,0.421l0.61,0.419l0.612,0.417l0.613,0.416l0.614,0.414l0.616,0.412l0.617,0.41l0.618,0.408l0.619,0.407l0.621,0.404l0.622,0.403l0.623,0.401l0.625,0.4l0.626,0.397l0.627,0.396l0.628,0.393l0.63,0.392l0.631,0.39l0.632,0.389l0.633,0.386l0.635,0.384l0.636,0.383l0.637,0.381l0.638,0.379l0.64,0.377l0.641,0.375l0.642,0.373l0.643,0.371l0.644,0.37l0.646,0.367l0.647,0.366l0.648,0.364l0.65,0.362l0.65,0.36l0.652,0.358l0.653,0.356l0.654,0.354l0.655,0.353l0.656,0.35l0.658,0.348l0.659,0.347l0.66,0.345l0.661,0.342l0.662,0.341l0.663,0.338l0.665,0.337l0.666,0.335l0.667,0.333l0.668,0.331l0.669,0.329l0.67,0.327l0.672,0.325l0.672,0.323l0.674,0.321l0.675,0.319l0.675,0.317l0.678,0.315l0.678,0.313l0.679,0.311l0.68,0.309l0.682,0.307l0.682,0.305l0.684,0.303l0.685,0.301l0.685,0.299l0.687,0.297l0.688,0.295l0.689,0.293l0.69,0.291l0.691,0.289l0.692,0.286l0.694,0.285l0.694,0.283l0.695,0.28l0.697,0.279l0.697,0.276l0.698,0.274l0.7,0.273l0.701,0.27l0.701,0.268l0.702,0.266l0.704,0.264l0.705,0.262l0.705,0.26l0.707,0.258l0.707,0.255l0.709,0.254l0.71,0.251l0.71,0.249l0.712,0.247l0.712,0.246l0.714,0.242l0.714,0.241l0.716,0.239l0.716,0.236l0.718,0.235l0.718,0.232l0.719,0.23l0.721,0.228l0.721,0.226l0.722,0.223l0.723,0.222l0.724,0.219l0.725,0.217l0.726,0.215l0.727,0.213l0.728,0.21l0.729,0.209l0.729,0.206l0.731,0.204l0.731,0.202l0.733,0.199l0.733,0.198l0.734,0.195l0.735,0.193l0.736,0.191l0.737,0.188l0.738,0.186l0.739,0.185l0.739,0.181l0.74,0.18l0.742,0.177l0.742,0.176l0.743,0.173l0.744,0.17l0.744,0.169l0.746,0.166l0.746,0.164l0.747,0.161l0.748,0.16l0.749,0.157l0.75,0.155l0.751,0.152l0.751,0.15l0.752,0.148l0.753,0.146l0.754,0.143l0.755,0.141l0.755,0.139l0.757,0.137l0.757,0.134l0.758,0.132l0.758,0.129l0.76,0.127l0.76,0.125l0.761,0.123l0.762,0.12l0.763,0.118l0.763,0.116l0.764,0.113l0.765,0.111l0.766,0.108l0.766,0.106l0.768,0.104l0.768,0.102l0.768,0.099l0.77,0.096l0.77,0.095l0.771,0.092l0.772,0.089l0.772,0.087l0.773,0.085l0.774,0.083l0.775,0.08l0.775,0.077l0.776,0.075l0.777,0.073l0.777,0.071l0.778,0.067l0.779,0.066l0.78,0.063l0.78,0.061l0.781,0.058l0.782,0.056l0.782,0.053l0.783,0.051l0.783,0.049l0.785,0.046l0.785,0.043l0.786,0.041l0.786,0.039l0.787,0.036l0.788,0.034l0.788,0.031l0.789,0.029l0.789,0.026l0.791,0.024l0.791,0.022l0.791,0.018l0.792,0.017l0.793,0.013l0.793,0.012l0.794,0.009l0.795,0.006l0.795,0.004l0.796,0.001l0.796,-0.001l0.795,-0.004l0.795,-0.006l0.794,-0.009l0.793,-0.012l0.793,-0.013l0.792,-0.017l0.791,-0.018l0.791,-0.022l0.791,-0.024l0.789,-0.026l0.789,-0.029l0.788,-0.031l0.788,-0.034l0.787,-0.036l0.786,-0.039l0.786,-0.041l0.785,-0.043l0.785,-0.046l0.783,-0.049l0.783,-0.051l0.782,-0.053l0.782,-0.056l0.781,-0.058l0.78,-0.061l0.78,-0.063l0.779,-0.066l0.778,-0.067l0.777,-0.071l0.777,-0.073l0.776,-0.075l0.775,-0.077l0.775,-0.08l0.774,-0.083l0.773,-0.085l0.772,-0.087l0.772,-0.089l0.771,-0.092l0.77,-0.095l0.77,-0.096l0.768,-0.099l0.768,-0.102l0.768,-0.104l0.766,-0.106l0.766,-0.108l0.765,-0.111l0.764,-0.113l0.763,-0.116l0.763,-0.118l0.762,-0.12l0.761,-0.123l0.76,-0.125l0.76,-0.127l0.758,-0.129l0.758,-0.132l0.757,-0.134l0.757,-0.137l0.755,-0.139l0.755,-0.141l0.754,-0.143l0.753,-0.146l0.752,-0.148l0.751,-0.15l0.751,-0.152l0.75,-0.155l0.749,-0.157l0.748,-0.16l0.747,-0.161l0.746,-0.164l0.746,-0.166l0.744,-0.169l0.744,-0.17l0.743,-0.173l0.742,-0.176l0.742,-0.177l0.74,-0.18l0.739,-0.181l0.739,-0.185l0.738,-0.186l0.737,-0.188l0.736,-0.191l0.735,-0.193l0.734,-0.195l0.733,-0.198l0.733,-0.199l0.731,-0.202l0.731,-0.204l0.729,-0.206l0.729,-0.209l0.728,-0.21l0.727,-0.213l0.726,-0.215l0.725,-0.217l0.724,-0.219l0.723,-0.222l0.722,-0.223l0.721,-0.226l0.721,-0.228l0.719,-0.23l0.718,-0.232l0.718,-0.235l0.716,-0.236l0.716,-0.239l0.714,-0.241l0.714,-0.242l0.712,-0.246l0.712,-0.247l0.71,-0.249l0.71,-0.251l0.709,-0.254l0.707,-0.255l0.707,-0.258l0.705,-0.26l0.705,-0.262l0.704,-0.264l0.702,-0.266l0.701,-0.268l0.701,-0.27l0.7,-0.273l0.698,-0.274l0.697,-0.276l0.697,-0.279l0.695,-0.28l0.694,-0.283l0.694,-0.285l0.692,-0.286l0.691,-0.289l0.69,-0.291l0.689,-0.293l0.688,-0.295l0.687,-0.297l0.685,-0.299l0.685,-0.301l0.684,-0.303l0.682,-0.305l0.682,-0.307l0.68,-0.309l0.679,-0.311l0.678,-0.313l0.678,-0.315l0.675,-0.317l0.675,-0.319l0.674,-0.321l0.672,-0.323l0.672,-0.325l0.67,-0.327l0.669,-0.329l0.668,-0.331l0.667,-0.333l0.666,-0.335l0.665,-0.337l0.663,-0.338l0.662,-0.341l0.661,-0.342l0.66,-0.345l0.659,-0.347l0.658,-0.348l0.656,-0.35l0.655,-0.353l0.654,-0.354l0.653,-0.356l0.652,-0.358l0.65,-0.36l0.65,-0.362l0.648,-0.364l0.647,-0.366l0.646,-0.367l0.644,-0.37l0.643,-0.371l0.642,-0.373l0.641,-0.375l0.64,-0.377l0.638,-0.379l0.637,-0.381l0.636,-0.383l0.635,-0.384l0.633,-0.386l0.632,-0.389l0.631,-0.39l0.63,-0.392l0.628,-0.393l0.627,-0.396l0.626,-0.397l0.625,-0.4l0.623,-0.401l0.622,-0.403l0.621,-0.404l0.619,-0.407l0.618,-0.408l0.617,-0.41l0.616,-0.412l0.614,-0.414l0.613,-0.416l0.612,-0.417l0.61,-0.419l0.609,-0.421l0.608,-0.423l0.606,-0.424l0.605,-0.427l0.603,-0.428l0.603,-0.43l0.601,-0.431l0.599,-0.433l0.599,-0.436l0.597,-0.436l0.595,-0.439l0.594,-0.44l0.593,-0.442l0.592,-0.444l0.59,-0.446l0.588,-0.447l0.588,-0.449l0.586,-0.451l0.585,-0.452l0.582,-0.454l0.582,-0.456l0.581,-0.458l0.579,-0.459l0.577,-0.461l0.576,-0.463l0.575,-0.464l0.573,-0.466l0.572,-0.468l0.571,-0.47l0.569,-0.471l0.567,-0.473l0.566,-0.474l0.565,-0.476l0.564,-0.478l0.561,-0.479l0.56,-0.481l0.56,-0.483l0.557,-0.485l0.556,-0.486l0.554,-0.487l0.554,-0.49l0.551,-0.491l0.55,-0.492l0.549,-0.494l0.547,-0.496l0.545,-0.498l0.544,-0.498l0.543,-0.501l0.542,-0.503l0.539,-0.504l0.538,-0.505l0.536,-0.507l0.536,-0.509l0.533,-0.51l0.532,-0.512l0.531,-0.513l0.529,-0.515l0.527,-0.516l0.526,-0.518l0.524,-0.52l0.523,-0.521l0.521,-0.523l0.519,-0.524l0.519,-0.526l0.516,-0.528l0.515,-0.529l0.513,-0.53l0.512,-0.532l0.511,-0.533l0.508,-0.535l0.507,-0.537l0.506,-0.538l0.503,-0.54l0.503,-0.541l0.5,-0.542l0.499,-0.544l0.498,-0.546l0.496,-0.547l0.494,-0.549l0.493,-0.55l0.49,-0.551l0.489,-0.553l0.489,-0.555l0.486,-0.556l0.484,-0.557l0.482,-0.559l0.482,-0.561l0.479,-0.562l0.478,-0.563l0.476,-0.564l0.474,-0.567l0.473,-0.567l0.471,-0.569l0.47,-0.571l0.468,-0.572l0.465,-0.573l0.465,-0.574l0.463,-0.577l0.461,-0.578l0.459,-0.578l0.458,-0.581l0.456,-0.582l0.453,-0.582l0.453,-0.585l0.451,-0.586l0.449,-0.588l0.447,-0.588l0.445,-0.59l0.444,-0.592l0.443,-0.593l0.44,-0.594l0.439,-0.595l0.436,-0.597l0.435,-0.598l0.434,-0.601l0.431,-0.6l0.43,-0.602l0.428,-0.604l0.427,-0.605l0.424,-0.607l0.423,-0.607l0.421,-0.609l0.419,-0.611l0.417,-0.611l0.416,-0.613l0.414,-0.614l0.412,-0.616l0.41,-0.617l0.408,-0.618l0.407,-0.619l0.405,-0.621l0.403,-0.622l0.4,-0.623l0.4,-0.625l0.397,-0.626l0.395,-0.626l0.394,-0.629l0.392,-0.63l0.39,-0.63l0.389,-0.633l0.386,-0.634l0.384,-0.633l0.383,-0.636l0.381,-0.638l0.379,-0.638l0.377,-0.64l0.375,-0.641l0.373,-0.642l0.371,-0.643l0.37,-0.645l0.367,-0.645l0.366,-0.647l0.364,-0.648l0.362,-0.649l0.36,-0.651l0.358,-0.652l0.356,-0.652l0.354,-0.655l0.353,-0.655l0.35,-0.656l0.348,-0.658l0.347,-0.659l0.345,-0.66l0.342,-0.661l0.341,-0.662l0.338,-0.663l0.337,-0.665l0.335,-0.666l0.333,-0.667l0.331,-0.668l0.329,-0.669l0.327,-0.67l0.325,-0.672l0.323,-0.672l0.321,-0.674l0.319,-0.675l0.317,-0.676l0.315,-0.676l0.313,-0.679l0.311,-0.679l0.309,-0.68l0.307,-0.682l0.305,-0.682l0.303,-0.684l0.301,-0.684l0.299,-0.686l0.297,-0.687l0.295,-0.688l0.293,-0.689l0.291,-0.69l0.289,-0.691l0.286,-0.693l0.285,-0.693l0.282,-0.693l0.281,-0.696l0.279,-0.697l0.276,-0.697l0.274,-0.699l0.273,-0.699l0.27,-0.7l0.268,-0.702l0.266,-0.702l0.264,-0.704l0.262,-0.704l0.26,-0.706l0.258,-0.707l0.255,-0.707l0.254,-0.709l0.251,-0.709l0.249,-0.711l0.248,-0.712l0.245,-0.712l0.242,-0.713l0.241,-0.715l0.239,-0.716l0.236,-0.717l0.235,-0.717l0.232,-0.718l0.23,-0.719l0.228,-0.721l0.226,-0.722l0.223,-0.721l0.222,-0.723l0.219,-0.724l0.217,-0.725l0.215,-0.727l0.213,-0.726l0.21,-0.727l0.209,-0.73l0.206,-0.729l0.204,-0.73l0.202,-0.733l0.199,-0.732l0.198,-0.733l0.195,-0.734l0.193,-0.735l0.191,-0.736l0.188,-0.737l0.186,-0.738l0.185,-0.739l0.181,-0.739l0.18,-0.741l0.177,-0.74l0.176,-0.743l0.173,-0.743l0.17,-0.743l0.169,-0.745l0.166,-0.746l0.164,-0.746l0.161,-0.747l0.16,-0.748l0.157,-0.75l0.155,-0.749l0.152,-0.75l0.15,-0.752l0.148,-0.752l0.146,-0.754l0.143,-0.754l0.141,-0.754l0.139,-0.755l0.137,-0.757l0.134,-0.757l0.132,-0.758l0.129,-0.758l0.127,-0.76l0.125,-0.76l0.123,-0.761l0.12,-0.763l0.118,-0.762l0.116,-0.763l0.113,-0.764l0.111,-0.765l0.108,-0.766l0.106,-0.766l0.104,-0.768l0.102,-0.768l0.099,-0.768l0.096,-0.769l0.095,-0.771l0.092,-0.771l0.089,-0.772l0.087,-0.772l0.085,-0.773l0.083,-0.774l0.08,-0.775l0.077,-0.775l0.075,-0.776l0.073,-0.777l0.071,-0.777l0.067,-0.778l0.066,-0.78l0.063,-0.779l0.061,-0.78l0.058,-0.781l0.056,-0.781l0.053,-0.783l0.051,-0.783l0.049,-0.784l0.046,-0.784l0.043,-0.785l0.041,-0.785l0.039,-0.787l0.036,-0.787l0.034,-0.788l0.031,-0.788l0.029,-0.789l0.026,-0.789l0.024,-0.79l0.021,-0.791l0.019,-0.792l0.017,-0.792l0.014,-0.793l0.011,-0.793l0.009,-0.794l0.006,-0.795l0.004,-0.795l0.001,-0.796l-0.001,-0.796l-0.004,-0.795l-0.006,-0.795l-0.009,-0.794l-0.011,-0.793l-0.014,-0.793l-0.017,-0.792l-0.019,-0.792l-0.021,-0.791l-0.024,-0.79l-0.026,-0.789l-0.029,-0.789l-0.031,-0.788l-0.034,-0.788l-0.036,-0.787l-0.039,-0.787l-0.041,-0.785l-0.043,-0.785l-0.046,-0.784l-0.049,-0.784l-0.051,-0.783l-0.053,-0.783l-0.056,-0.781l-0.058,-0.781l-0.061,-0.78l-0.063,-0.779l-0.066,-0.78l-0.067,-0.778l-0.071,-0.777l-0.073,-0.777l-0.075,-0.776l-0.077,-0.775l-0.08,-0.775l-0.083,-0.774l-0.085,-0.773l-0.087,-0.772l-0.089,-0.772l-0.092,-0.771l-0.095,-0.771l-0.096,-0.769l-0.099,-0.768l-0.102,-0.768l-0.104,-0.768l-0.106,-0.766l-0.108,-0.766l-0.111,-0.765l-0.113,-0.764l-0.116,-0.763l-0.118,-0.762l-0.12,-0.763l-0.123,-0.761l-0.125,-0.76l-0.127,-0.76l-0.129,-0.758l-0.132,-0.758l-0.134,-0.757l-0.137,-0.757l-0.139,-0.755l-0.141,-0.754l-0.143,-0.754l-0.146,-0.754l-0.148,-0.752l-0.15,-0.752l-0.152,-0.75l-0.155,-0.749l-0.157,-0.75l-0.16,-0.748l-0.161,-0.747l-0.164,-0.746l-0.166,-0.746l-0.169,-0.745l-0.17,-0.743l-0.173,-0.743l-0.176,-0.743l-0.177,-0.74l-0.18,-0.741l-0.181,-0.739l-0.185,-0.739l-0.186,-0.738l-0.188,-0.737l-0.191,-0.736l-0.193,-0.735l-0.195,-0.734l-0.198,-0.733l-0.199,-0.732l-0.202,-0.733l-0.204,-0.73l-0.206,-0.729l-0.209,-0.73l-0.21,-0.727l-0.213,-0.726l-0.215,-0.727l-0.217,-0.725l-0.219,-0.724l-0.222,-0.723l-0.223,-0.721l-0.226,-0.722l-0.228,-0.721l-0.23,-0.719l-0.232,-0.718l-0.235,-0.717l-0.236,-0.717l-0.239,-0.716l-0.241,-0.715l-0.242,-0.713l-0.245,-0.712l-0.248,-0.712l-0.249,-0.711l-0.251,-0.709l-0.254,-0.709l-0.255,-0.707l-0.258,-0.707l-0.26,-0.706l-0.262,-0.704l-0.264,-0.704l-0.266,-0.702l-0.268,-0.702l-0.27,-0.7l-0.273,-0.699l-0.274,-0.699l-0.276,-0.697l-0.279,-0.697l-0.281,-0.696l-0.282,-0.693l-0.285,-0.693l-0.286,-0.693l-0.289,-0.691l-0.291,-0.69l-0.293,-0.689l-0.295,-0.688l-0.297,-0.687l-0.299,-0.686l-0.301,-0.684l-0.303,-0.684l-0.305,-0.682l-0.307,-0.682l-0.309,-0.68l-0.311,-0.679l-0.313,-0.679l-0.315,-0.676l-0.317,-0.676l-0.319,-0.675l-0.321,-0.674l-0.323,-0.672l-0.325,-0.672l-0.327,-0.67l-0.329,-0.669l-0.331,-0.668l-0.333,-0.667l-0.335,-0.666l-0.337,-0.665l-0.338,-0.663l-0.341,-0.662l-0.343,-0.661l-0.344,-0.66l-0.347,-0.659l-0.348,-0.658l-0.35,-0.656l-0.353,-0.655l-0.354,-0.655l-0.356,-0.652l-0.358,-0.652l-0.36,-0.651l-0.362,-0.649l-0.364,-0.648l-0.366,-0.647l-0.367,-0.645l-0.37,-0.645l-0.371,-0.643l-0.373,-0.642l-0.375,-0.641l-0.377,-0.64l-0.379,-0.638l-0.381,-0.638l-0.383,-0.635l-0.384,-0.634l-0.386,-0.634l-0.389,-0.633l-0.39,-0.63l-0.392,-0.63l-0.393,-0.629l-0.396,-0.626l-0.397,-0.626l-0.4,-0.625l-0.4,-0.623l-0.403,-0.622l-0.405,-0.621l-0.407,-0.619l-0.408,-0.619l-0.41,-0.616l-0.412,-0.616l-0.414,-0.614l-0.416,-0.613l-0.417,-0.611l-0.419,-0.611l-0.421,-0.609l-0.423,-0.607l-0.424,-0.607l-0.427,-0.605l-0.428,-0.604l-0.43,-0.602l-0.431,-0.6l-0.434,-0.601l-0.435,-0.598l-0.436,-0.597l-0.439,-0.595l-0.44,-0.594l-0.442,-0.593l-0.445,-0.592l-0.445,-0.59l-0.447,-0.588l-0.449,-0.588l-0.451,-0.586l-0.453,-0.585l-0.453,-0.582l-0.456,-0.582l-0.458,-0.581l-0.459,-0.578l-0.461,-0.578l-0.463,-0.577l-0.465,-0.574l-0.465,-0.573l-0.468,-0.572l-0.47,-0.571l-0.471,-0.569l-0.473,-0.567l-0.474,-0.567l-0.476,-0.564l-0.478,-0.563l-0.479,-0.562l-0.482,-0.561l-0.482,-0.559l-0.484,-0.557l-0.487,-0.556l-0.488,-0.555l-0.489,-0.553l-0.491,-0.551l-0.492,-0.55l-0.494,-0.548l-0.496,-0.548l-0.498,-0.546l-0.499,-0.543l-0.5,-0.543l-0.503,-0.541l-0.503,-0.54l-0.506,-0.538l-0.507,-0.536l-0.509,-0.536l-0.51,-0.533l-0.511,-0.532l-0.514,-0.53l-0.515,-0.529l-0.516,-0.528l-0.519,-0.526l-0.519,-0.524l-0.521,-0.523l-0.523,-0.521l-0.524,-0.52l-0.526,-0.518l-0.527,-0.516l-0.529,-0.515l-0.531,-0.513l-0.532,-0.512l-0.533,-0.51l-0.536,-0.509l-0.536,-0.507l-0.538,-0.505l-0.539,-0.504l-0.542,-0.503l-0.543,-0.501l-0.544,-0.498l-0.545,-0.498l-0.547,-0.496l-0.549,-0.494l-0.55,-0.492l-0.551,-0.491l-0.554,-0.49l-0.554,-0.487l-0.556,-0.486l-0.557,-0.484l-0.559,-0.484l-0.561,-0.481l-0.561,-0.479l-0.564,-0.478l-0.565,-0.476l-0.566,-0.474l-0.567,-0.473l-0.569,-0.471l-0.571,-0.47l-0.572,-0.468l-0.573,-0.466l-0.575,-0.464l-0.576,-0.463l-0.577,-0.461l-0.579,-0.459l-0.581,-0.458l-0.581,-0.455l-0.584,-0.455l-0.584,-0.452l-0.586,-0.451l-0.587,-0.449l-0.589,-0.447l-0.59,-0.446l-0.592,-0.444l-0.592,-0.442l-0.595,-0.44l-0.595,-0.439l-0.597,-0.436l-0.599,-0.436l-0.599,-0.433l-0.601,-0.431l-0.603,-0.43l-0.603,-0.428l-0.605,-0.427l-0.606,-0.424l-0.608,-0.423l-0.609,-0.421l-0.61,-0.419l-0.612,-0.417l-0.613,-0.416l-0.614,-0.414l-0.616,-0.412l-0.617,-0.41l-0.618,-0.408l-0.619,-0.407l-0.621,-0.404l-0.622,-0.403l-0.623,-0.401l-0.625,-0.4l-0.626,-0.397l-0.627,-0.396l-0.628,-0.393l-0.63,-0.392l-0.631,-0.39l-0.632,-0.389l-0.633,-0.386l-0.635,-0.384l-0.636,-0.383l-0.637,-0.381l-0.638,-0.379l-0.64,-0.377l-0.641,-0.375l-0.642,-0.373l-0.643,-0.371l-0.644,-0.37l-0.646,-0.367l-0.647,-0.366l-0.648,-0.364l-0.65,-0.362l-0.65,-0.36l-0.652,-0.358l-0.653,-0.356l-0.654,-0.354l-0.655,-0.353l-0.656,-0.35l-0.658,-0.348l-0.659,-0.347l-0.66,-0.344l-0.661,-0.343l-0.662,-0.341l-0.664,-0.339l-0.664,-0.336l-0.666,-0.335l-0.667,-0.333l-0.668,-0.331l-0.669,-0.329l-0.67,-0.327l-0.672,-0.325l-0.672,-0.323l-0.674,-0.321l-0.675,-0.319l-0.676,-0.317l-0.677,-0.315l-0.678,-0.313l-0.679,-0.311l-0.68,-0.309l-0.682,-0.307l-0.682,-0.305l-0.684,-0.303l-0.685,-0.301l-0.685,-0.299l-0.687,-0.297l-0.688,-0.295l-0.689,-0.293l-0.69,-0.291l-0.691,-0.289l-0.692,-0.286l-0.694,-0.285l-0.694,-0.283l-0.695,-0.28l-0.697,-0.279l-0.697,-0.276l-0.698,-0.274l-0.7,-0.273l-0.701,-0.27l-0.701,-0.268l-0.702,-0.266l-0.704,-0.264l-0.705,-0.262l-0.705,-0.26l-0.707,-0.258l-0.707,-0.255l-0.709,-0.254l-0.71,-0.251l-0.71,-0.249l-0.712,-0.247l-0.712,-0.245l-0.714,-0.243l-0.714,-0.241l-0.716,-0.239l-0.716,-0.236l-0.718,-0.235l-0.718,-0.232l-0.719,-0.23l-0.721,-0.228l-0.721,-0.226l-0.722,-0.223l-0.723,-0.222l-0.724,-0.219l-0.725,-0.217l-0.726,-0.215l-0.727,-0.213l-0.728,-0.21l-0.729,-0.209l-0.729,-0.206l-0.731,-0.204l-0.731,-0.202l-0.733,-0.199l-0.733,-0.198l-0.734,-0.195l-0.735,-0.193l-0.736,-0.191l-0.737,-0.188l-0.738,-0.186l-0.738,-0.185l-0.74,-0.181l-0.74,-0.18l-0.742,-0.177l-0.742,-0.176l-0.743,-0.173l-0.744,-0.17l-0.744,-0.169l-0.746,-0.166l-0.746,-0.164l-0.747,-0.161l-0.748,-0.16l-0.749,-0.157l-0.75,-0.155l-0.751,-0.152l-0.751,-0.15l-0.752,-0.148l-0.753,-0.146l-0.754,-0.143l-0.755,-0.141l-0.756,-0.139l-0.756,-0.137l-0.757,-0.134l-0.758,-0.132l-0.758,-0.129l-0.76,-0.127l-0.76,-0.125l-0.761,-0.123l-0.762,-0.12l-0.763,-0.118l-0.763,-0.116l-0.764,-0.113l-0.765,-0.111l-0.766,-0.108l-0.766,-0.106l-0.768,-0.104l-0.768,-0.102l-0.768,-0.099l-0.77,-0.096l-0.77,-0.095l-0.771,-0.092l-0.772,-0.089l-0.772,-0.087l-0.773,-0.085l-0.774,-0.083l-0.775,-0.08l-0.775,-0.077l-0.776,-0.075l-0.777,-0.073l-0.777,-0.071l-0.778,-0.067l-0.779,-0.066l-0.78,-0.063l-0.78,-0.061l-0.781,-0.058l-0.782,-0.056l-0.782,-0.053l-0.783,-0.051l-0.784,-0.049l-0.784,-0.046l-0.785,-0.043l-0.786,-0.041l-0.786,-0.039l-0.787,-0.036l-0.788,-0.034l-0.788,-0.031l-0.789,-0.029l-0.789,-0.026l-0.791,-0.024l-0.79,-0.022l-0.792,-0.018l-0.792,-0.017l-0.793,-0.014l-0.793,-0.011l-0.794,-0.009l-0.795,-0.006l-0.795,-0.004l-0.796,-0.001l-0.796,0.001Z" style="fill:#fff;"/><ellipse cx="223.083" cy="245.5" rx="186.083" ry="201.5" style="fill:url(#_Radial1);"/><path d="M221.482,141.634c7.126,-9.111 20.239,-13.719 31.44,-11.229c19.578,4.352 20.17,21.877 20.212,22.457c0.834,11.41 -5.508,22.316 -13.474,25.827c-22.024,9.704 -54.446,-6.083 -38.178,-37.055" style="fill:#fff;"/><path d="M94.303,151.021c-35.514,11.205 -5.963,-56.223 21.862,-50.153c12.045,2.628 9.417,15.789 1.808,28.047c-6.307,10.159 -16.036,19.698 -23.67,22.106Z" style="fill:#fff;"/><path d="M393.479,245.683c11.836,-37.062 53.615,-29.08 44.3,13.17c-9.979,45.257 -55.666,22.417 -44.3,-13.17Z" style="fill:#fff;"/><path d="M14,198c4.162,-5.202 8.823,-7.288 53,-4c49.227,3.664 49.111,5.763 80,15c39.377,11.775 47.176,17.589 82,33c34.824,15.411 48.996,24.253 71,36c22.004,11.747 64.897,44.553 98,47c36.517,2.699 43.519,0.026 62,-7c20.38,-7.748 42.045,-29.026 42,-30" style="fill:none;stroke:#fff;stroke-width:10px;"/><defs><radialGradient id="_Radial1" cx="0" cy="0" r="1" gradientUnits="userSpaceOnUse" gradientTransform="matrix(186.083,0,0,186.083,223.083,245.5)"><stop offset="0" style="stop-color:#fff;stop-opacity:0.380392"/><stop offset="1" style="stop-color:#fff;stop-opacity:0"/></radialGradient></defs></svg>