<?xml version="1.0" encoding="UTF-8" standalone="no"?><!DOCTYPE svg PUBLIC "-//W3C//DTD SVG 1.1//EN" "http://www.w3.org/Graphics/SVG/1.1/DTD/svg11.dtd"><svg width="100%" height="100%" viewBox="0 0 512 512" version="1.1" xmlns="http://www.w3.org/2000/svg" xmlns:xlink="http://www.w3.org/1999/xlink" xml:space="preserve" xmlns:serif="http://www.serif.com/" style="fill-rule:evenodd;clip-rule:evenodd;stroke-linejoin:round;stroke-miterlimit:1.41421;"><rect id="chaser" x="0" y="0" width="512" height="512" style="fill:none;"/><clipPath id="_clip1"><rect x="0" y="0" width="512" height="512"/></clipPath><g clip-path="url(#_clip1)"><g><path d="M54,440l2.1,-16.1l359.9,-359.9l32,32l-359.335,359.335l-17.665,2.665l-17,-18Z" style="fill:url(#_Linear2);"/><path d="M416,96l-80,-16l160,-64l-64,160l-16,-80Z" style="fill:#979ca1;"/><path d="M416,96l80,-80l-64,160l-16,-80Z" style="fill:#ced0d3;"/><path d="M192,336l0,64l-5.259,5.259l-6.741,-28.259l-0.822,35.822l-10.178,-22.822l1.369,31.631l-12.369,-21.631l0.797,33.203l-9.797,-21.203l-2,35l-9,-24l-4,35l-10,-21l-1,34l-12,-19l-2,32l-9,-25l-2,35l-6,-24l-12,42l0,-64l112,-112Z" style="fill:#fff;"/><path d="M192,400l-5.259,5.259l-6.741,-28.259l-0.822,35.822l-10.178,-22.822l1.369,31.631l-12.369,-21.631l0.797,33.203l-9.797,-21.203l-2,35l-9,-24l-4,35l-10,-21l-1,34l-12,-19l-2,32l-9,-25l-2,35l-6,-24l-12,42l0,-64l112,-112l0,64Zm-108.5,49.45l0,37.56l5.135,-17.972l0.164,-0.453l0.224,-0.426l0.281,-0.392l0.333,-0.349l0.377,-0.3l0.414,-0.245l0.445,-0.187l0.466,-0.123l0.478,-0.058l0.482,0.008l0.476,0.074l0.462,0.139l0.438,0.201l0.406,0.259l0.367,0.313l0.32,0.36l0.268,0.4l0.211,0.434l0.148,0.458l0.423,1.689l0.688,-12.04l0.06,-0.475l0.124,-0.462l0.186,-0.442l0.245,-0.411l0.299,-0.375l0.347,-0.33l0.388,-0.28l0.424,-0.223l0.45,-0.165l0.468,-0.101l0.478,-0.036l0.478,0.029l0.469,0.095l0.452,0.157l0.427,0.218l0.393,0.274l0.352,0.325l0.304,0.37l0.25,0.408l0.193,0.438l3.269,9.081l0.945,-15.113l0.064,-0.485l0.132,-0.471l0.195,-0.448l0.256,-0.416l0.312,-0.376l0.361,-0.33l0.404,-0.276l0.438,-0.217l0.464,-0.154l0.48,-0.088l0.489,-0.02l0.486,0.049l0.475,0.115l0.454,0.181l0.425,0.242l0.387,0.299l0.341,0.35l0.289,0.394l5.88,9.309l0.662,-22.543l0.049,-0.488l0.117,-0.477l0.182,-0.456l0.245,-0.426l0.301,-0.388l0.353,-0.341l0.397,-0.289l0.434,-0.23l0.461,-0.168l0.481,-0.101l0.49,-0.033l0.49,0.036l0.479,0.104l0.461,0.17l0.432,0.233l0.395,0.292l0.351,0.343l0.299,0.39l0.242,0.427l4.749,9.974l2.614,-22.866l0.09,-0.483l0.156,-0.466l0.221,-0.439l0.279,-0.404l0.334,-0.361l0.38,-0.31l0.42,-0.255l0.452,-0.192l0.475,-0.128l0.487,-0.06l0.491,0.009l0.486,0.077l0.469,0.145l0.445,0.209l0.411,0.269l0.369,0.324l0.32,0.373l0.265,0.413l0.204,0.447l3.175,8.467l1.054,-18.438l0.062,-0.484l0.128,-0.471l0.193,-0.448l0.253,-0.417l0.309,-0.378l0.358,-0.332l0.401,-0.278l0.436,-0.219l0.462,-0.157l0.48,-0.092l0.487,-0.023l0.486,0.044l0.475,0.112l0.455,0.177l0.426,0.238l0.389,0.295l0.344,0.346l0.292,0.391l0.235,0.428l2.716,5.877l-0.392,-16.325l0.022,-0.487l0.09,-0.478l0.155,-0.462l0.218,-0.436l0.276,-0.401l0.329,-0.359l0.376,-0.31l0.415,-0.254l0.446,-0.195l0.469,-0.131l0.483,-0.064l0.487,0.003l0.482,0.071l0.468,0.137l0.443,0.201l0.412,0.26l0.371,0.315l0.325,0.364l0.27,0.405l5.211,9.111l-0.746,-17.223l0.013,-0.483l0.079,-0.477l0.144,-0.462l0.206,-0.437l0.265,-0.405l0.317,-0.364l0.365,-0.317l0.406,-0.264l0.437,-0.206l0.462,-0.143l0.478,-0.078l0.483,-0.011l0.48,0.055l0.469,0.121l0.447,0.184l0.417,0.244l0.38,0.299l0.335,0.349l0.284,0.391l0.227,0.427l3.839,8.61l0.465,-20.264l0.044,-0.479l0.109,-0.468l0.172,-0.448l0.232,-0.421l0.287,-0.385l0.337,-0.342l0.381,-0.292l0.418,-0.238l0.446,-0.178l0.466,-0.116l0.478,-0.051l0.48,0.016l0.473,0.08l0.458,0.145l0.434,0.207l0.402,0.263l0.361,0.317l0.315,0.362l0.263,0.403l0.204,0.434l0.143,0.459l5.096,21.362l0,-53.1l-105,105Z" style="fill:#ced0d3;"/><path d="M176,320l-64,0l-6.865,6.865l30.865,3.135l-44.121,10.121l30.121,6.879l-41.67,4.67l28.67,5.33l-40.353,6.353l27.353,4.647l-38.623,6.623l22.623,4.377l-34.432,7.432l29.432,5.568l-39.243,4.243l26.243,5.757l-36.82,4.82l28.82,7.18l-40.68,4.68l34.68,5.32l-48,8l64,0l112,-112Z" style="fill:#fff;"/><path d="M64,432l-64,0l48,-8l-34.68,-5.32l40.68,-4.68l-28.82,-7.18l36.82,-4.82l-26.243,-5.757l39.243,-4.243l-29.432,-5.568l34.432,-7.432l-22.623,-4.377l38.623,-6.623l-27.353,-4.647l40.353,-6.353l-28.67,-5.33l41.67,-4.67l-30.121,-6.879l44.121,-10.121l-30.865,-3.135l6.865,-6.865l64,0l-112,112Zm49.45,-108.5l-0.628,0.628l23.532,2.39l0.485,0.084l0.468,0.151l0.443,0.216l0.407,0.275l0.366,0.33l0.315,0.378l0.259,0.418l0.198,0.451l0.133,0.474l0.065,0.488l-0.004,0.492l-0.073,0.487l-0.14,0.471l-0.206,0.448l-0.266,0.414l-0.322,0.372l-0.37,0.324l-0.413,0.269l-0.446,0.208l-0.47,0.143l-29.217,6.702l15.213,3.475l0.47,0.142l0.445,0.207l0.411,0.267l0.37,0.322l0.322,0.37l0.267,0.412l0.206,0.445l0.143,0.469l0.075,0.485l0.006,0.491l-0.062,0.486l-0.129,0.473l-0.194,0.451l-0.255,0.419l-0.312,0.379l-0.361,0.332l-0.404,0.278l-0.439,0.218l-0.466,0.156l-0.482,0.088l-18.294,2.05l5.544,1.031l0.474,0.123l0.452,0.188l0.422,0.249l0.383,0.306l0.336,0.356l0.283,0.4l0.225,0.435l0.162,0.463l0.095,0.48l0.028,0.489l-0.041,0.489l-0.109,0.477l-0.175,0.458l-0.236,0.429l-0.294,0.392l-0.346,0.346l-0.392,0.296l-0.428,0.237l-0.457,0.176l-0.478,0.109l-19.227,3.027l6.269,1.065l0.477,0.116l0.455,0.181l0.426,0.243l0.387,0.301l0.342,0.351l0.29,0.396l0.231,0.432l0.169,0.46l0.102,0.479l0.035,0.489l-0.034,0.489l-0.102,0.48l-0.168,0.46l-0.23,0.433l-0.289,0.396l-0.342,0.352l-0.387,0.301l-0.425,0.243l-0.455,0.182l-0.476,0.117l-19.717,3.381l3.79,0.733l0.463,0.123l0.441,0.184l0.412,0.244l0.376,0.297l0.331,0.346l0.28,0.388l0.226,0.422l0.165,0.45l0.103,0.467l0.038,0.477l-0.028,0.478l-0.092,0.47l-0.156,0.453l-0.216,0.427l-0.273,0.394l-0.323,0.353l-0.369,0.305l-0.407,0.252l-0.438,0.194l-0.46,0.133l-17.535,3.785l12.448,2.355l0.458,0.119l0.439,0.181l0.41,0.238l0.374,0.291l0.331,0.339l0.283,0.381l0.228,0.415l0.17,0.443l0.109,0.461l0.046,0.472l-0.019,0.474l-0.083,0.467l-0.145,0.451l-0.204,0.428l-0.261,0.396l-0.312,0.357l-0.357,0.312l-0.396,0.261l-0.428,0.205l-0.451,0.145l-0.467,0.083l-17.929,1.938l5.303,1.163l0.469,0.138l0.445,0.202l0.413,0.262l0.372,0.317l0.325,0.365l0.27,0.408l0.211,0.44l0.147,0.467l0.082,0.482l0.013,0.488l-0.055,0.486l-0.122,0.473l-0.187,0.452l-0.248,0.421l-0.305,0.383l-0.354,0.336l-0.398,0.284l-0.434,0.225l-0.461,0.163l-0.479,0.097l-18.495,2.421l10.887,2.713l0.463,0.15l0.438,0.213l0.403,0.271l0.363,0.325l0.313,0.372l0.259,0.412l0.2,0.444l0.135,0.467l0.07,0.482l0.003,0.487l-0.066,0.482l-0.131,0.468l-0.195,0.446l-0.255,0.415l-0.31,0.375l-0.36,0.328l-0.401,0.275l-0.435,0.217l-0.462,0.155l-0.478,0.089l-14.766,1.699l8.897,1.365l0.481,0.109l0.462,0.175l0.432,0.24l0.394,0.297l0.349,0.35l0.295,0.396l0.237,0.433l0.174,0.462l0.107,0.482l0.038,0.492l-0.032,0.493l-0.1,0.484l-0.168,0.464l-0.232,0.436l-0.29,0.4l-0.344,0.354l-0.39,0.303l-0.429,0.244l-0.459,0.182l-0.481,0.115l-6.285,1.048l20.26,0l105,-105l-54.1,0Z" style="fill:#ced0d3;"/><path d="M313,87.691c-28.643,-10.486 -63.395,1.737 -103,32c13.974,1.864 28.268,3.647 64,0c31.722,-5.358 36.99,-18.217 39,-32" style="fill:#fff;fill-opacity:0.33189;"/><path d="M237,160c-3.842,1.844 -61.419,-20.372 -102,6c-35.972,22.372 -64.837,54.136 -95,76c77.77,-3.07 132.706,-7.876 144,-16c38.885,-13.434 54.73,-56.513 53,-66Z" style="fill:#fff;fill-opacity:0.33189;"/><path d="M373.422,264c9.779,38.733 6.347,60.858 -4,83c-8.843,20.625 -29.516,39.342 -51,58c-28.786,25.297 -59.099,47.011 -91,65c0,0 19.768,-63.694 31.578,-90c17.235,-38.391 35.182,-107.86 114.422,-116Z" style="fill:#fff;fill-opacity:0.33189;"/><path d="M438.422,198c15.763,18.349 15.853,66.158 -29,118c-0.143,-20.36 0.751,-37.966 1,-61c0.228,-21.013 4.994,-50.394 28,-57" style="fill:#fff;fill-opacity:0.33189;"/><path d="M353.786,301.16c7.812,22.894 -9.876,67.31 -70.786,98.764c7.436,-18.954 10.206,-32.633 19,-53.924c8.023,-19.423 27.972,-47.26 51.786,-44.84" style="fill:#c8e0ef;fill-opacity:0.33189;"/><path d="M210,176.488c-5.613,23.53 -46.83,48.667 -117,48.512c16.404,-12.06 28.2,-28.689 47,-42c17.151,-12.143 51.153,-21.268 70,-6.512" style="fill:#cde3f0;fill-opacity:0.33189;"/></g></g><defs><linearGradient id="_Linear2" x1="0" y1="0" x2="1" y2="0" gradientUnits="userSpaceOnUse" gradientTransform="matrix(394,0,0,394,54,261)"><stop offset="0" style="stop-color:#6b4919;stop-opacity:1"/><stop offset="1" style="stop-color:#87612b;stop-opacity:1"/></linearGradient></defs></svg>