<?xml version="1.0" encoding="UTF-8" standalone="no"?><!DOCTYPE svg PUBLIC "-//W3C//DTD SVG 1.1//EN" "http://www.w3.org/Graphics/SVG/1.1/DTD/svg11.dtd"><svg width="100%" height="100%" viewBox="0 0 512 512" version="1.1" xmlns="http://www.w3.org/2000/svg" xmlns:xlink="http://www.w3.org/1999/xlink" xml:space="preserve" xmlns:serif="http://www.serif.com/" style="fill-rule:evenodd;clip-rule:evenodd;stroke-linejoin:round;stroke-miterlimit:1.41421;"><rect id="troll" x="0" y="0" width="512" height="512" style="fill:none;"/><clipPath id="_clip1"><rect x="0" y="0" width="512" height="512"/></clipPath><g clip-path="url(#_clip1)"><path d="M41,512c0,0 0,-5.945 0,-10.588c0,-3.541 -0.963,-7.016 -2.785,-10.053c-1.295,-2.16 -2.875,-4.792 -4.358,-7.264c-3.196,-5.326 -5.134,-11.312 -5.668,-17.5c-1.256,-14.575 -3.582,-41.557 -4.09,-47.442c-0.066,-0.769 -0.149,-1.536 -0.25,-2.3c-0.688,-5.229 -3.536,-26.871 -4.516,-34.32c-0.232,-1.767 -0.338,-3.548 -0.314,-5.33c0.353,-23.551 3.954,-45.14 12.749,-63.6c2.433,-5.084 5.466,-9.858 9.035,-14.221c1.659,-2.058 3.701,-4.553 5.708,-7.007c5.597,-6.84 9.691,-14.782 12.016,-23.308c0.154,-0.564 0.309,-1.134 0.466,-1.707c3.302,-12.107 9.089,-23.394 16.993,-33.142c4.196,-5.176 8.72,-10.756 12.185,-15.029c3.189,-3.934 3.92,-9.316 1.895,-13.957c-2.847,-6.217 -3.284,-12.914 0.339,-21.831c0.406,-0.998 0.752,-2.02 1.035,-3.059c0.972,-3.521 3.24,-11.834 4.559,-16.673c0.663,-2.43 1.713,-4.737 3.11,-6.833c2.713,-4.069 7.154,-10.731 7.809,-11.713c0.055,-0.082 0.108,-0.165 0.16,-0.248c0.489,-0.782 3.142,-5.027 4.337,-6.94c0.386,-0.617 0.89,-1.153 1.483,-1.576c0,0 0,0 0,-0.001c3.872,-2.765 8.761,-3.693 13.377,-2.539c2.384,0.596 4.856,1.214 6.557,1.639c1.442,0.36 2.845,0.861 4.19,1.494c2.072,0.975 5.404,2.543 8.4,3.953c4.3,2.023 7.95,5.206 10.54,9.19c2.224,3.422 4.918,7.567 6.783,10.436c1.467,2.257 2.195,4.914 2.083,7.602c-0.168,4.024 -0.423,10.158 -0.606,14.544c-0.145,3.476 -1.282,6.837 -3.277,9.687c-1.166,1.666 -2.4,3.428 -3.17,4.53c-0.516,0.736 -1.095,1.426 -1.73,2.061c-0.215,0.215 -0.453,0.453 -0.698,0.698c-1.451,1.451 -2.014,3.569 -1.474,5.549c0.449,1.645 0.989,3.624 1.412,5.177c0.474,1.736 0.661,3.537 0.555,5.333c-0.19,3.236 -0.506,8.603 -0.691,11.757c-0.099,1.676 -0.467,3.326 -1.091,4.885c-0.621,1.552 -1.433,3.583 -2.064,5.161c-0.66,1.65 -1.11,3.377 -1.34,5.139c-0.631,4.833 -1.947,14.929 -2.452,18.795c-0.134,1.033 -0.343,2.054 -0.624,3.058c-1.19,4.249 -4.576,16.345 -5.969,21.317c-0.405,1.447 -0.947,2.853 -1.619,4.197c-1.739,3.478 -5.234,10.467 -6.51,13.019c-0.359,0.719 -0.754,1.42 -1.183,2.1c-3.107,4.902 -6.132,8.723 -9.072,11.37c-3.283,2.926 -5.097,7.159 -4.951,11.554c0.202,6.213 0.477,14.462 0.624,18.863c0.068,2.039 -0.141,4.079 -0.62,6.062c-1.581,6.551 -5.276,21.861 -6.109,25.312c-0.113,0.466 -0.237,0.929 -0.374,1.388c-1.414,4.758 -9.702,32.635 -10.697,35.982c-0.065,0.219 -0.127,0.44 -0.185,0.661c-0.451,1.711 -2.542,9.657 -3.846,14.615c-0.709,2.691 -1.067,5.462 -1.067,8.244l0,32.489c0,3.2 1.985,6.064 4.981,7.188c6.708,2.515 17.927,6.723 18.945,7.104c0.049,0.019 0.099,0.037 0.149,0.055c0.854,0.315 8.872,3.269 14.194,5.23c3.125,1.151 6,2.891 8.47,5.126c6.037,5.462 17.261,15.617 17.261,15.617l-119,0Z" style="fill:#366c55;"/><path d="M89.741,204.134l-9.741,-20.643l30,-49.354c0,0 -0.33,-1.163 -0.722,-2.544c-0.789,-2.782 -0.018,-5.776 2.013,-7.821c0.21,-0.212 0.419,-0.423 0.622,-0.627c1.362,-1.372 3.089,-2.319 4.974,-2.725c4.098,-0.885 11.113,-2.399 11.113,-2.399c0,0 9.121,-1.312 16.952,-2.439c7.271,-1.046 14.682,-0.419 21.677,1.836c6.807,2.194 14.371,4.632 14.371,4.632c0,0 16.08,6.599 23.422,9.611c2.379,0.977 4.655,2.192 6.793,3.627c2.617,1.757 6.365,4.274 9.433,6.335c3.421,2.297 5.774,5.891 6.523,9.964c1.367,7.432 3.48,18.925 3.79,20.614c0.026,0.141 0.053,0.281 0.081,0.42c0.381,1.919 3.304,16.642 5.709,28.755c2.156,10.855 2.81,21.959 1.945,32.994c-0.351,4.482 -0.717,9.15 -1.019,12.999c-0.45,5.744 -1.538,11.419 -3.245,16.919c-2.547,8.212 -6.209,20.014 -7.185,23.16c-0.165,0.53 -0.311,1.066 -0.439,1.606c-0.507,2.145 -1.924,8.139 -3.089,13.069c-1.128,4.771 -3.437,9.176 -6.712,12.804c0,0 0,0 0,0.001c-3.189,3.533 -7.71,5.547 -12.45,5.547c-1.759,0 -3.343,0 -4.095,0c-0.308,0 -0.615,-0.018 -0.921,-0.055c-2.136,-0.259 -11.277,-1.363 -17.776,-2.149c-4.398,-0.531 -8.849,0.349 -12.721,2.515c-2.048,1.146 -4.336,2.426 -6.362,3.56c-3.701,2.071 -7.938,2.963 -12.153,2.559c-3.12,-0.299 -6.799,-0.652 -9.675,-0.928c-2.778,-0.267 -4.931,-2.565 -5.034,-5.374c-0.166,-4.495 -0.409,-11.111 -0.573,-15.582c-0.052,-1.396 -0.227,-2.78 -0.521,-4.138l5.264,-10.604c0.672,-1.354 1.214,-2.769 1.619,-4.227c1.393,-5.009 4.779,-17.191 5.969,-21.472c0.281,-1.01 0.49,-2.039 0.624,-3.08c0.505,-3.893 1.821,-14.062 2.452,-18.931c0.23,-1.775 0.68,-3.514 1.34,-5.176c0.631,-1.589 1.443,-3.634 2.064,-5.198c0.624,-1.57 0.992,-3.232 1.091,-4.92c0.185,-3.177 0.501,-8.583 0.691,-11.843c0.106,-1.808 -0.081,-3.623 -0.555,-5.371c-0.423,-1.564 -0.963,-3.557 -1.412,-5.214c-0.54,-1.995 0.023,-4.128 1.474,-5.59c0.245,-0.246 0.483,-0.486 0.698,-0.703c0.635,-0.64 1.214,-1.334 1.73,-2.076c0.77,-1.109 2.004,-2.884 3.17,-4.562c1.995,-2.87 3.132,-6.256 3.277,-9.757c0.183,-4.418 0.438,-10.596 0.606,-14.649c0.112,-2.708 -0.616,-5.384 -2.083,-7.657c-1.865,-2.891 -4.559,-7.066 -6.783,-10.512c-2.59,-4.013 -6.24,-7.219 -10.54,-9.257c-2.996,-1.42 -6.328,-3 -8.4,-3.981c-1.345,-0.638 -2.748,-1.142 -4.19,-1.505c-1.701,-0.428 -4.173,-1.051 -6.557,-1.651c-4.616,-1.162 -9.505,-0.227 -13.377,2.558c0,0 0,0 0,0.001c-0.593,0.426 -1.097,0.965 -1.483,1.587c-1.195,1.927 -3.848,6.203 -4.337,6.99c-0.052,0.084 -0.105,0.167 -0.16,0.25c-0.655,0.99 -5.096,7.699 -7.809,11.798c-1.397,2.11 -2.447,4.434 -3.11,6.882c-1.319,4.874 -3.587,13.248 -4.559,16.793c-0.283,1.048 -0.629,2.077 -1.035,3.082c-3.48,8.628 -3.214,15.192 -0.664,21.246Z" style="fill:#452b19;"/><path d="M211.427,80.743l-2.446,0.326c-3.998,0.533 -7.773,-1.973 -8.834,-5.863c-0.462,-1.696 -0.877,-3.217 -1.055,-3.87c-0.061,-0.224 -0.113,-0.45 -0.154,-0.679c-0.212,-1.163 -0.915,-5.032 -1.413,-7.772c-0.349,-1.919 -0.525,-3.866 -0.525,-5.817c0,-1.907 0,-4.494 0,-6.986c0,-5.26 1.618,-10.394 4.635,-14.703c0,0 0,-0.001 0,-0.001c1.542,-2.202 3.705,-3.893 6.214,-4.858c0.813,-0.313 1.693,-0.651 2.574,-0.991c4.252,-1.635 8.94,-1.741 13.262,-0.301c0.634,0.212 1.258,0.42 1.843,0.615c2.289,0.763 4.394,1.996 6.18,3.619l0.535,0.486l-0.112,0.095c-0.291,0.246 -0.465,0.603 -0.481,0.984c-0.016,0.381 0.128,0.751 0.398,1.021c0.133,0.133 0.271,0.271 0.409,0.409c0.964,0.964 1.382,2.346 1.115,3.682c-0.279,1.396 -0.648,3.241 -0.958,4.792c-0.38,1.898 -1.747,3.447 -3.583,4.059c-0.941,0.313 -1.886,0.628 -2.464,0.821c-0.378,0.126 -0.745,0.278 -1.101,0.456c-0.815,0.408 -2.35,1.175 -3.072,1.536c-0.261,0.13 -0.499,0.302 -0.705,0.508c-0.001,0.001 -0.001,0.001 -0.001,0.001c-2.39,2.39 -3.916,5.509 -4.335,8.864c-0.093,0.744 -0.179,1.429 -0.242,1.938c-0.074,0.59 -0.197,1.172 -0.368,1.741c-0.726,2.421 -2.743,9.145 -2.743,9.145c0,0 -0.87,2.611 -1.463,4.388c-0.275,0.827 -0.648,1.618 -1.11,2.355Z" style="fill:#366c55;"/><path d="M301.94,68.709c2.04,-1.014 4.446,-1.016 6.495,0.008c1.371,0.686 2.918,1.46 4.166,2.083c1.575,0.788 2.934,1.949 3.958,3.383c0.164,0.229 0.334,0.467 0.507,0.709c1.894,2.652 2.785,5.891 2.515,9.139c-0.119,1.424 -0.244,2.922 -0.347,4.163c-0.155,1.854 -0.661,3.661 -1.493,5.324c-0.667,1.333 -1.491,2.982 -2.196,4.392c-1.02,2.039 -2.437,3.854 -4.168,5.338c-1.209,1.036 -2.566,2.2 -3.444,2.953c-0.621,0.531 -1.29,1.003 -1.999,1.408c-1.014,0.58 -2.568,1.467 -3.831,2.189c-1.396,0.798 -2.679,1.778 -3.816,2.915c-0.483,0.483 -1.01,1.01 -1.498,1.498c-1.167,1.167 -2.652,1.962 -4.27,2.285c0,0 0,0 -0.001,0c-1.602,0.321 -3.265,-0.056 -4.573,-1.037c-0.493,-0.37 -0.981,-0.736 -1.346,-1.009c-0.398,-0.299 -0.763,-0.641 -1.087,-1.019l-0.83,-0.969l0.079,-0.114c0.159,-0.232 0.314,-0.467 0.463,-0.706c1.3,-2.081 7.891,-12.626 9.447,-15.115c0.219,-0.351 0.422,-0.713 0.607,-1.083c0.64,-1.28 2.253,-4.505 3.415,-6.831c0.863,-1.725 1.378,-3.603 1.515,-5.527c0.203,-2.842 0.505,-7.066 0.671,-9.393c0.08,-1.126 0.277,-2.24 0.587,-3.325l0.474,-1.659Z" style="fill:#366c55;"/><path d="M229,130c-0.529,-0.424 -2.53,-6.728 -5,-13.392c-1.157,-3.12 -1.719,-6.041 -3,-9.608c-2.103,-5.855 -2.597,-11.244 -4.088,-16c-1.557,-4.965 -5.333,-10.421 -4.912,-11c0.662,-0.911 0.181,-0.544 0.537,-1.612c0.593,-1.777 1.463,-4.388 1.463,-4.388c0,0 2.017,-6.724 2.743,-9.145c0.171,-0.569 0.294,-1.151 0.368,-1.741c0.063,-0.509 0.149,-1.194 0.242,-1.938c0.419,-3.355 1.945,-6.474 4.335,-8.864c0,0 0,0 0.001,-0.001c0.206,-0.206 0.444,-0.378 0.705,-0.508c0.722,-0.361 2.257,-1.128 3.072,-1.536c0.356,-0.178 0.723,-0.33 1.101,-0.456c0.578,-0.193 1.523,-0.508 2.464,-0.821c1.836,-0.612 3.203,-2.161 3.583,-4.059c0.31,-1.551 0.679,-3.396 0.958,-4.792c0.267,-1.336 -0.151,-2.718 -1.115,-3.682c-0.138,-0.138 -0.276,-0.276 -0.409,-0.409c-0.27,-0.27 -0.414,-0.64 -0.398,-1.021c0.016,-0.381 0.19,-0.738 0.481,-0.984c2.728,-2.308 9.577,-8.104 11.411,-9.656c0.305,-0.258 0.62,-0.504 0.944,-0.738c0,0 0,0 0.001,0c11.013,-7.955 25.15,-10.205 38.089,-6.065c0.351,0.113 0.688,0.221 1.008,0.323c2.266,0.725 4.42,1.763 6.4,3.082c0.85,0.567 1.824,1.216 2.841,1.894c5.832,3.888 9.706,10.1 10.632,17.047c0.126,0.946 0.24,1.799 0.331,2.477c0.141,1.061 0.212,2.13 0.212,3.2c0,2.622 0,7.763 0,10.137c0,0.836 -0.052,1.672 -0.156,2.503c-0.145,1.159 -0.365,2.917 -0.543,4.349c-0.201,1.6 -0.524,3.183 -0.967,4.734c-0.284,0.996 -0.61,2.135 -0.868,3.038c-0.31,1.085 -0.507,2.199 -0.587,3.325c-0.166,2.327 -0.468,6.551 -0.671,9.393c-0.137,1.924 -0.652,3.802 -1.515,5.527c-1.162,2.326 -2.775,5.551 -3.415,6.831c-0.185,0.37 -0.388,0.732 -0.607,1.083c-1.556,2.489 -8.147,13.034 -9.447,15.115c-0.149,0.239 -0.304,0.474 -0.463,0.706c-1.443,2.098 -8.979,13.06 -10.495,15.265c-0.177,0.258 -0.369,0.505 -0.575,0.74c-0.537,0.613 -1.698,1.941 -2.906,3.321c-2.393,2.735 -5.898,4.234 -9.527,4.076c-5.259,-0.228 -12.681,-0.551 -15.794,-0.686c-0.974,-0.043 -1.94,-0.183 -2.885,-0.419c-1.721,-0.431 -4.681,-1.17 -7.032,-1.758c-2.337,-0.585 -4.666,-1.382 -6.547,-2.887Z" style="fill:#366355;"/><path d="M274.614,127.107l9.807,-14.265l4.349,8.698c1.389,2.779 4.1,4.657 7.189,4.982l10.371,1.092l-12.33,2.386l63,162l29.519,13.418c-0.151,0.137 -0.315,0.26 -0.493,0.366c-0.476,0.286 -0.928,0.557 -1.284,0.771c-0.195,0.117 -0.335,0.308 -0.388,0.53c-0.053,0.221 -0.015,0.455 0.106,0.648c2.694,4.285 16.43,26.137 20.44,32.517c0.73,1.162 1.311,2.412 1.727,3.72c0.859,2.7 2.452,7.708 3.831,12.041c1.561,4.907 0.255,10.276 -3.386,13.917c-2.414,2.414 -5.135,5.135 -7.274,7.274c-2.379,2.379 -3.439,5.773 -2.837,9.082c0.505,2.781 1.134,6.237 1.688,9.283c0.843,4.639 -0.708,9.389 -4.126,12.636c-3.14,2.983 -7.033,6.682 -9.998,9.499c-3.008,2.857 -6.313,5.385 -9.858,7.54c-5.636,3.426 -14.899,9.056 -23.615,14.354c-14.424,8.767 -30.979,13.404 -47.859,13.404c-5.959,0 -12.077,0 -17.298,0c-9.19,0 -18.306,-1.638 -26.92,-4.838c-6.933,-2.575 -14.87,-5.523 -19.048,-7.075c-1.948,-0.723 -3.951,-1.292 -5.989,-1.699c-7.748,-1.55 -27.999,-5.6 -34.728,-6.946c-1.473,-0.295 -2.934,-0.646 -4.379,-1.052c-4.89,-1.375 -16.905,-4.755 -24.107,-6.78c-3.729,-1.049 -7.057,-3.197 -9.549,-6.163c-3.026,-3.603 -7.317,-8.711 -10.852,-12.92c-4.154,-4.945 -7.054,-10.819 -8.455,-17.123c-0.728,-3.275 -1.53,-6.885 -2.215,-9.964c-1.087,-4.891 -1.003,-9.969 0.245,-14.821c1.504,-5.85 3.6,-13.999 5.124,-19.928c1.306,-5.079 1.614,-10.363 0.905,-15.559l-0.302,-2.215l4.904,0.467c0.329,0.031 0.659,0.055 0.988,0.07c0.599,0.029 1.198,0.032 1.795,0.009c0.194,-0.008 0.388,-0.018 0.582,-0.031c0.454,-0.029 0.907,-0.074 1.357,-0.134l0.194,-0.026c0.13,-0.018 0.259,-0.038 0.388,-0.059l0.194,-0.032c0.258,-0.044 0.515,-0.092 0.771,-0.146l0.192,-0.041c0.113,-0.025 0.227,-0.051 0.339,-0.077c0.142,-0.034 0.283,-0.069 0.425,-0.105l0.189,-0.05c0.19,-0.051 0.379,-0.105 0.567,-0.161c0.196,-0.058 0.391,-0.12 0.584,-0.184c0.176,-0.058 0.352,-0.119 0.526,-0.182c0.112,-0.04 0.224,-0.082 0.336,-0.124c0.209,-0.08 0.418,-0.163 0.625,-0.249c0.391,-0.164 0.777,-0.339 1.159,-0.526c0.153,-0.076 0.306,-0.153 0.457,-0.232c0.163,-0.084 0.324,-0.171 0.485,-0.261c2.026,-1.125 4.314,-2.396 6.362,-3.534c0.285,-0.158 0.572,-0.31 0.863,-0.454c0.223,-0.11 0.447,-0.216 0.673,-0.319c0.494,-0.224 0.996,-0.428 1.504,-0.613c0.174,-0.062 0.347,-0.123 0.522,-0.181l0.023,-0.008l0.005,-0.002c1.689,-0.56 3.442,-0.904 5.217,-1.023c0.292,-0.02 0.585,-0.033 0.878,-0.04l0.149,-0.004l0.061,0l0.145,-0.002l0.206,-0.001c0.068,0 0.137,0 0.206,0.001l0.206,0.004c0.311,0.006 0.622,0.02 0.933,0.04c0.272,0.018 0.543,0.041 0.814,0.07c0.105,0.01 0.21,0.022 0.316,0.035c6.499,0.78 15.64,1.877 17.776,2.133c0.306,0.037 0.613,0.055 0.921,0.055c0.752,0 2.336,0 4.095,0c0.296,0 0.591,-0.008 0.886,-0.023l0.22,-0.013l0.18,-0.013c0.163,-0.013 0.326,-0.028 0.488,-0.045c0.143,-0.015 0.285,-0.032 0.428,-0.051c0.435,-0.057 0.868,-0.132 1.296,-0.223c0.213,-0.045 0.426,-0.094 0.637,-0.148c0.215,-0.055 0.43,-0.113 0.643,-0.177c0.901,-0.267 1.777,-0.608 2.62,-1.021c0.065,-0.032 0.13,-0.064 0.195,-0.097l0.193,-0.099c0.221,-0.115 0.439,-0.235 0.655,-0.361c0.098,-0.057 0.196,-0.115 0.293,-0.174c0.335,-0.203 0.663,-0.418 0.984,-0.646c0.69,-0.488 1.346,-1.029 1.961,-1.622l0.158,-0.155c0.071,-0.07 0.141,-0.141 0.211,-0.213l0.099,-0.102l0.001,-0.001c0.102,-0.106 0.202,-0.214 0.302,-0.324c0,0 0,0 0,0c0.103,-0.113 0.204,-0.226 0.305,-0.34l0.15,-0.172c0.149,-0.172 0.296,-0.346 0.441,-0.521l0.144,-0.176c0.096,-0.118 0.19,-0.236 0.284,-0.356c0.188,-0.238 0.371,-0.479 0.551,-0.722l0,-0.001c0.853,-1.157 1.617,-2.375 2.286,-3.643l0.105,-0.201c0.245,-0.472 0.476,-0.95 0.694,-1.435c0.247,-0.548 0.476,-1.104 0.688,-1.667l0.079,-0.213c0.213,-0.578 0.406,-1.163 0.582,-1.754c0.076,-0.258 0.149,-0.517 0.218,-0.777c0.065,-0.244 0.127,-0.488 0.185,-0.734c1.165,-4.895 2.582,-10.846 3.089,-12.975c0.068,-0.283 0.14,-0.564 0.218,-0.844c0.069,-0.251 0.143,-0.502 0.221,-0.751c0.976,-3.123 4.638,-14.841 7.185,-22.994l0.027,-0.086l0.132,-0.426l0.1,-0.333c0.121,-0.403 0.238,-0.806 0.352,-1.21l0.144,-0.517l0.109,-0.401c0.534,-1.989 0.988,-3.998 1.359,-6.022c0.055,-0.297 0.108,-0.595 0.159,-0.893l0.089,-0.528c0.347,-2.114 0.606,-4.243 0.774,-6.381c0.302,-3.821 0.668,-8.456 1.019,-12.905l0.023,-0.301l0.017,-0.213l0.003,-0.045c0.036,-0.481 0.068,-0.962 0.098,-1.444c0.028,-0.447 0.053,-0.895 0.076,-1.342c0.033,-0.661 0.061,-1.322 0.084,-1.983c0.016,-0.468 0.029,-0.935 0.039,-1.403c0.012,-0.498 0.02,-0.996 0.024,-1.494c0.01,-0.975 0.007,-1.95 -0.007,-2.924c-0.01,-0.666 -0.026,-1.332 -0.047,-1.997c-0.013,-0.424 -0.029,-0.848 -0.046,-1.272c-0.04,-0.931 -0.09,-1.862 -0.152,-2.792c-0.124,-1.891 -0.293,-3.779 -0.508,-5.662c-0.067,-0.588 -0.138,-1.175 -0.214,-1.761c-0.108,-0.843 -0.226,-1.684 -0.353,-2.524c-0.1,-0.664 -0.206,-1.328 -0.318,-1.991c-0.202,-1.206 -0.424,-2.409 -0.664,-3.609c-2.405,-12.027 -5.328,-26.644 -5.709,-28.549c-0.028,-0.139 -0.055,-0.278 -0.081,-0.417c-0.31,-1.677 -2.423,-13.087 -3.79,-20.466l-0.036,-0.189c-0.786,-3.966 -3.119,-7.459 -6.487,-9.704c-3.068,-2.045 -6.816,-4.544 -9.433,-6.289c-2.138,-1.425 -4.414,-2.631 -6.793,-3.601c-7.342,-2.991 -23.422,-9.542 -23.422,-9.542l-2.174,-0.696l8.436,-5.061c2.453,-1.472 4.498,-3.535 5.948,-6c2.538,-4.315 6.488,-11.029 7.53,-12.802c0.173,-0.294 0.339,-0.592 0.497,-0.895c1.514,-2.901 9.823,-18.828 11.477,-21.997c0.054,-0.105 0.162,-0.171 0.28,-0.172c0.118,-0.001 0.226,0.064 0.282,0.168c0.04,0.084 0.08,0.171 0.121,0.263l-0.86,2.58c-0.356,1.068 0.125,0.701 -0.537,1.612c-0.421,0.579 3.355,6.035 4.912,11c1.491,4.756 1.985,10.145 4.088,16c1.281,3.567 1.843,6.488 3,9.608c2.47,6.664 4.471,12.968 5,13.392c1.881,1.505 4.209,2.302 6.547,2.887c2.351,0.588 5.311,1.327 7.032,1.758c0.087,0.022 0.175,0.043 0.262,0.062c0.268,0.062 0.538,0.116 0.809,0.163l0.18,0.03c0.18,0.028 0.361,0.053 0.542,0.075l0.182,0.02c0.302,0.033 0.606,0.055 0.91,0.069c3.113,0.135 10.535,0.458 15.794,0.686c0.17,0.008 0.339,0.011 0.509,0.012l0.169,-0.001c0.226,-0.003 0.451,-0.013 0.675,-0.028l0.168,-0.013l0.106,-0.01l0.061,-0.005l0.167,-0.018c0.134,-0.015 0.267,-0.032 0.399,-0.052c0.144,-0.021 0.287,-0.045 0.429,-0.07l0.164,-0.032c0.067,-0.013 0.134,-0.027 0.201,-0.042l0.126,-0.027l0.162,-0.038c1.17,-0.284 2.291,-0.742 3.323,-1.359c0.326,-0.195 0.643,-0.405 0.949,-0.631l0.066,-0.048l0.064,-0.048c0.196,-0.148 0.388,-0.303 0.576,-0.464c0.43,-0.369 0.835,-0.77 1.213,-1.202c1.208,-1.38 2.369,-2.708 2.906,-3.321l0.076,-0.088c0.102,-0.12 0.199,-0.242 0.293,-0.366c0.047,-0.063 0.094,-0.126 0.139,-0.19c0.022,-0.032 0.045,-0.064 0.067,-0.096l0.348,-0.506Z" style="fill:#366c55;"/><path d="M294,130c0,0 23.378,-4.525 29.531,-5.716c0.977,-0.189 1.97,-0.284 2.965,-0.284c0.58,0 1.299,0 2.105,0c7.906,0 15.456,3.292 20.836,9.086c1.75,1.885 3.294,3.548 4.057,4.369c0.337,0.363 0.648,0.748 0.932,1.154c0.715,1.021 2.215,3.164 3.602,5.145c1.958,2.797 3.283,5.987 3.883,9.348c1.442,8.076 4.089,22.898 4.089,22.898c0,0 4.296,22.912 5.618,29.961c0.254,1.354 0.332,2.734 0.234,4.108c-0.125,1.754 -0.31,4.348 -0.476,6.669c-0.246,3.444 0.439,6.892 1.983,9.981c0.866,1.73 1.806,3.611 2.514,5.027c0.75,1.499 1.363,3.064 1.833,4.674c1.407,4.825 4.534,15.547 5.774,19.796c0.346,1.188 0.628,2.395 0.843,3.614c0.468,2.652 1.347,7.631 1.97,11.161c0.469,2.662 1.28,5.251 2.413,7.705c0.593,1.286 1.27,2.753 1.909,4.136c1.577,3.417 2.522,7.092 2.791,10.846c0.124,1.744 0.257,3.603 0.365,5.12c0.147,2.058 -0.487,4.097 -1.777,5.709c0,0 0,0.001 -0.001,0.001c-1.172,1.466 -3.189,1.948 -4.898,1.172c-8.057,-3.663 -30.095,-13.68 -30.095,-13.68l-63,-162Z" style="fill:#452b19;"/><path d="M389.235,413.227l1.765,2.773l9,43l-6,21l10,25l2,7l-180,0c0,0 1.001,-13.514 1.587,-21.421c0.106,-1.44 -0.391,-2.86 -1.375,-3.919c-0.983,-1.059 -2.362,-1.66 -3.807,-1.66c-4.386,0 -10.186,0 -12.892,0c-1.004,0 -2.003,-0.136 -2.97,-0.405c-1.781,-0.494 -4.937,-1.371 -8.019,-2.227c-4.951,-1.376 -10.182,0.949 -12.48,5.545c-2.763,5.525 -6.311,12.622 -8.366,16.732c-1.029,2.056 -3.13,3.355 -5.429,3.355c-0.001,0 -0.002,0 -0.003,0c-0.732,0 -1.371,-0.498 -1.548,-1.209c-0.789,-3.157 -2.95,-11.798 -4.372,-17.487c-0.871,-3.482 -0.871,-7.126 0,-10.608c1.104,-4.415 2.652,-10.608 3.659,-14.636c0.668,-2.672 0.728,-5.461 0.176,-8.16c-2.078,-10.161 -7.299,-35.686 -7.299,-35.686c2.229,2.057 4.92,3.569 7.862,4.396c7.202,2.025 19.217,5.405 24.107,6.78c1.445,0.406 2.906,0.757 4.379,1.052c6.729,1.346 26.98,5.396 34.728,6.946c2.038,0.407 4.041,0.976 5.989,1.699c4.178,1.552 12.115,4.5 19.048,7.075c8.614,3.2 17.73,4.838 26.92,4.838c5.221,0 11.339,0 17.298,0c16.88,0 33.435,-4.637 47.859,-13.404c8.716,-5.298 17.979,-10.928 23.615,-14.354c3.545,-2.155 6.85,-4.683 9.858,-7.54l4.71,-4.475Z" style="fill:#452b19;"/><path d="M354,150c0,0 4.559,1.954 8.473,3.631c3.593,1.54 6.609,4.173 8.621,7.525c1.408,2.348 3.021,5.036 4.205,7.009c1.126,1.877 1.931,3.928 2.382,6.07c0.625,2.969 1.56,7.412 2.279,10.825c0.687,3.261 0.719,6.626 0.095,9.899c-0.812,4.267 -1.951,10.243 -2.584,13.566c-0.313,1.646 -0.796,3.254 -1.44,4.801c-1.454,3.489 -4.031,9.674 -4.031,9.674l-7,-15l-11,-58Z" style="fill:#366c55;"/><path d="M392.877,289.775l7.773,6.316c1.556,1.264 2.892,2.776 3.954,4.476c1.748,2.796 4.543,7.269 6.423,10.277c1.301,2.082 2.16,4.409 2.522,6.838c1.663,11.141 6.648,44.541 8.628,57.803c0.532,3.563 2.298,6.826 4.991,9.22c0.972,0.864 1.966,1.748 2.797,2.486c1.352,1.202 2.837,2.246 4.425,3.113c2.594,1.414 6.562,3.579 8.034,4.382c0.377,0.206 0.692,0.508 0.913,0.876c0.001,0.001 0.001,0.001 0.001,0.002c1.52,2.533 4.69,3.535 7.39,2.335c2.735,-1.216 6.156,-2.736 8.839,-3.929c2.856,-1.269 5.147,-3.541 6.44,-6.386c0.269,-0.591 0.545,-1.198 0.816,-1.795c1.28,-2.816 0.485,-6.143 -1.931,-8.076c0,0 -0.001,0 -0.001,0c-0.563,-0.451 -0.891,-1.133 -0.891,-1.854c0,-2.05 0,-6.451 0,-9.746c0,-2.36 1.735,-4.361 4.071,-4.695c0.001,0 0.001,0 0.002,0c1.888,-0.27 3.811,0.147 5.419,1.174c6.569,4.197 24.307,15.53 30.95,19.774c1.679,1.072 3.065,2.546 4.032,4.287c0.118,0.213 0.24,0.432 0.364,0.655c1.997,3.595 2.239,7.906 0.657,11.703c-0.562,1.35 -1.125,2.7 -1.573,3.775c-0.578,1.389 -0.448,2.972 0.349,4.248c0,0 0,0 0.001,0.001c2.411,3.858 3.42,8.43 2.855,12.945c-0.183,1.47 -0.373,2.986 -0.543,4.346c-0.375,3.003 -1.877,5.752 -4.202,7.689c-0.001,0 -0.001,0.001 -0.001,0.001c-1.445,1.204 -2.037,3.152 -1.506,4.958c0.742,2.525 1.823,6.2 2.692,9.154c0.924,3.143 0.687,6.513 -0.668,9.495c-0.382,0.839 -0.776,1.706 -1.146,2.521c-1.134,2.495 -3.091,4.525 -5.542,5.75c-6.614,3.308 -20.095,10.048 -25.69,12.846c-1.674,0.836 -3.234,1.884 -4.642,3.116c-0.919,0.804 -2.008,1.757 -2.998,2.623c-1.888,1.652 -4.175,2.78 -6.635,3.272c-3.401,0.68 -8.41,1.682 -11.966,2.393c-2.779,0.556 -5.663,0.201 -8.225,-1.013c-4.283,-2.029 -10.889,-5.158 -13.707,-6.492c-0.897,-0.425 -1.754,-0.929 -2.562,-1.506c-2.513,-1.795 -8.291,-5.922 -11.138,-7.956c-1.074,-0.767 -1.895,-1.837 -2.359,-3.073c0,0 0,0 0,-0.001c-1.415,-3.773 -0.696,-8.015 1.884,-11.11c0.133,-0.161 0.255,-0.307 0.362,-0.435c0.268,-0.321 0.262,-0.79 -0.014,-1.105c-0.51,-0.583 -1.372,-1.568 -2.304,-2.634c-2.62,-2.994 -3.494,-7.134 -2.307,-10.931c0.759,-2.43 1.596,-5.107 2.207,-7.062c0.532,-1.704 -0.035,-3.56 -1.429,-4.675c-0.077,-0.062 -0.155,-0.125 -0.233,-0.187c-1.592,-1.274 -2.723,-3.036 -3.218,-5.015c-0.493,-1.971 -1.127,-4.508 -1.594,-6.377c-0.417,-1.669 -0.276,-3.428 0.401,-5.009c0.14,-0.325 0.285,-0.665 0.431,-1.005c0.884,-2.062 0.171,-4.461 -1.696,-5.705c-0.831,-0.555 -1.64,-1.094 -2.169,-1.446c-0.405,-0.271 -0.839,-0.495 -1.294,-0.67l-1.787,-0.687c1.233,-2.604 1.65,-5.566 1.12,-8.483c-0.554,-3.046 -1.183,-6.502 -1.688,-9.283c-0.602,-3.309 0.458,-6.703 2.837,-9.082c2.139,-2.139 4.86,-4.86 7.274,-7.274c3.641,-3.641 4.947,-9.01 3.386,-13.917c-1.379,-4.333 -2.972,-9.341 -3.831,-12.041c-0.416,-1.308 -0.997,-2.558 -1.727,-3.72c-4.01,-6.38 -17.746,-28.232 -20.44,-32.517c-0.121,-0.193 -0.159,-0.427 -0.106,-0.648c0.053,-0.222 0.193,-0.413 0.388,-0.53c0.356,-0.214 0.808,-0.485 1.284,-0.771c0.178,-0.106 0.342,-0.229 0.493,-0.366l-6.812,-3.097l7.388,3.359c1.709,0.776 3.726,0.294 4.898,-1.172c0.001,0 0.001,-0.001 0.001,-0.001c1.29,-1.612 1.924,-3.651 1.777,-5.709c-0.108,-1.517 -0.241,-3.376 -0.365,-5.12c-0.094,-1.313 -0.271,-2.617 -0.529,-3.903Z" style="fill:#366c55;"/><path d="M426.84,480.872l13.215,6.259c2.562,1.214 5.446,1.569 8.225,1.013c3.556,-0.711 8.565,-1.713 11.966,-2.393c1.305,-0.261 2.561,-0.701 3.734,-1.303c-0.025,0.718 -0.078,1.435 -0.158,2.15c-0.644,5.799 -2.822,25.402 -2.822,25.402l-38,0c0,0 2.719,-21.752 3.674,-29.388c0.072,-0.579 0.127,-1.159 0.166,-1.74Zm-14.698,-167.952l-0.142,-0.92l-1,-4c0,0 0,-37.974 0,-44.155c0,-0.563 -0.011,-1.127 -0.032,-1.69c-0.116,-2.991 -0.51,-13.247 -0.758,-19.702c-0.138,-3.57 -1.229,-7.038 -3.161,-10.043c-0.503,-0.782 -1.035,-1.61 -1.567,-2.438c-2.913,-4.532 -4.321,-9.868 -4.022,-15.248c0.122,-2.194 0.247,-4.445 0.346,-6.228c0.128,-2.306 -0.215,-4.615 -1.009,-6.785c-2.2,-6.013 -6.95,-18.995 -10.257,-28.036c-2.337,-6.387 -3.388,-13.173 -3.093,-19.967c0.359,-8.237 0.855,-19.643 1.189,-27.328c0.241,-5.558 1.275,-11.053 3.071,-16.319c3.01,-8.83 7.793,-22.862 10.418,-30.56c1.241,-3.643 3.072,-7.057 5.419,-10.108c1.051,-1.366 2.196,-2.855 3.227,-4.195c2.015,-2.619 5.215,-4.045 8.51,-3.792c1.585,0.122 3.27,0.252 4.66,0.359c2.007,0.154 4.02,-0.202 5.852,-1.035c0.753,-0.342 1.597,-0.725 2.448,-1.112c3.464,-1.575 7.541,-0.836 10.232,1.855c0,0 0,0 0,0c0.345,0.345 0.775,0.595 1.246,0.723c1.214,0.331 3.759,1.025 6.012,1.64c2.789,0.76 5.736,0.713 8.498,-0.137c1.732,-0.533 3.71,-1.142 5.349,-1.646c2.226,-0.685 4.61,-0.657 6.819,0.079c0.83,0.277 1.713,0.571 2.527,0.843c1.97,0.656 4.119,0.503 5.976,-0.425c0.001,0 0.001,-0.001 0.002,-0.001c3.044,-1.522 6.721,-0.926 9.128,1.481c0.422,0.422 0.833,0.833 1.209,1.209c1.127,1.127 2.657,1.761 4.252,1.761c0,0 0,0 0.001,0c1.581,0 3.073,0.735 4.037,1.988c0.679,0.883 1.527,1.984 2.421,3.147c3.993,5.19 6.902,11.13 8.555,17.466c0.126,0.483 0.252,0.969 0.38,1.457c1.893,7.257 -0.681,14.947 -6.561,19.602c-2.713,2.148 -5.59,4.425 -8.048,6.371c-3.656,2.895 -4.782,7.957 -2.696,12.129c0.802,1.603 1.42,2.84 1.42,2.84l-3,12l2,6l-4,10l5,38l-3,10l-5,44c0,0 -7.296,13.55 -11.354,21.086c-1.737,3.226 -2.646,6.832 -2.646,10.495c0,4.474 0,10.426 0,13.063c0,0.903 -0.045,1.806 -0.135,2.705l-6.492,64.919c-0.241,0.569 -0.373,1.193 -0.373,1.845l0,24.587c-1.213,1.389 -2.721,2.51 -4.433,3.27c-2.683,1.193 -6.104,2.713 -8.839,3.929c-2.7,1.2 -5.87,0.198 -7.39,-2.335c0,-0.001 0,-0.001 -0.001,-0.002c-0.221,-0.368 -0.536,-0.67 -0.913,-0.876c-1.472,-0.803 -5.44,-2.968 -8.034,-4.382c-1.588,-0.867 -3.073,-1.911 -4.425,-3.113c-0.831,-0.738 -1.825,-1.622 -2.797,-2.486c-2.693,-2.394 -4.459,-5.657 -4.991,-9.22c-1.98,-13.262 -6.965,-46.662 -8.628,-57.803c-0.246,-1.649 -0.72,-3.251 -1.407,-4.762Z" style="fill:#452b19;"/><path d="M172.249,508c2.299,0 4.401,-1.299 5.429,-3.355c2.055,-4.11 5.603,-11.207 8.366,-16.732c2.298,-4.596 7.529,-6.921 12.48,-5.545c3.082,0.856 6.238,1.733 8.019,2.227c0.967,0.269 1.966,0.405 2.97,0.405c2.706,0 8.506,0 12.892,0c1.445,0 2.824,0.601 3.807,1.66c0.984,1.059 1.481,2.479 1.375,3.919c-0.586,7.907 -1.587,21.421 -1.587,21.421l23.436,0l-1.436,7l-79,2l2.269,-13.334c0.272,0.211 0.613,0.334 0.977,0.334l0.003,0Z" style="fill:#366c55;"/></g></svg>